<svg width="22" height="22" viewBox="0 0 22 22" fill="none" xmlns="http://www.w3.org/2000/svg">
<circle cx="11" cy="11" r="9" stroke="#156BA8" stroke-width="2.5"/>
<circle cx="11" cy="8.25" r="2.25" stroke="#156BA8" stroke-width="2.5"/>
<path fill-rule="evenodd" clip-rule="evenodd" d="M5.83068 16.7682C7.11233 15.3739 8.95143 14.5 10.9946 14.5C13.2598 14.5 15.2741 15.5741 16.5561 17.2407L18.7067 15.9427C16.9787 13.5541 14.1681 12 10.9946 12C7.97068 12 5.2763 13.4111 3.534 15.6106H3.91271L5.83068 16.7682Z" fill="#156BA8"/>
<path d="M5.83068 16.7682L5.7015 16.9823L5.87645 17.0879L6.01474 16.9374L5.83068 16.7682ZM16.5561 17.2407L16.358 17.3931L16.4941 17.5701L16.6853 17.4547L16.5561 17.2407ZM18.7067 15.9427L18.8359 16.1567L19.0685 16.0163L18.9093 15.7962L18.7067 15.9427ZM3.534 15.6106L3.33803 15.4554L3.01704 15.8606H3.534V15.6106ZM3.91271 15.6106L4.0419 15.3966L3.98231 15.3606H3.91271V15.6106ZM10.9946 14.25C8.87858 14.25 6.97362 15.1553 5.64662 16.599L6.01474 16.9374C7.25103 15.5924 9.02427 14.75 10.9946 14.75V14.25ZM16.7543 17.0883C15.427 15.3628 13.3407 14.25 10.9946 14.25V14.75C13.1789 14.75 15.1213 15.7854 16.358 17.3931L16.7543 17.0883ZM18.5775 15.7287L16.4269 17.0266L16.6853 17.4547L18.8359 16.1567L18.5775 15.7287ZM10.9946 12.25C14.0845 12.25 16.8211 13.7628 18.5041 16.0892L18.9093 15.7962C17.1362 13.3453 14.2517 11.75 10.9946 11.75V12.25ZM3.72997 15.7659C5.42689 13.6236 8.05028 12.25 10.9946 12.25V11.75C7.89108 11.75 5.12571 13.1985 3.33803 15.4554L3.72997 15.7659ZM3.91271 15.3606H3.534V15.8606H3.91271V15.3606ZM5.95986 16.5542L4.0419 15.3966L3.78353 15.8247L5.7015 16.9823L5.95986 16.5542Z" fill="#156BA8"/>
</svg>
