<svg width="21" height="23" viewBox="0 0 21 23" fill="none" xmlns="http://www.w3.org/2000/svg">
<path d="M9.94737 0L3.86842 10.35H16.0263L9.94737 0ZM9.94737 4.416L12.0805 8.05H7.80316L9.94737 4.416ZM16.0263 12.65C13.2742 12.65 11.0526 14.9615 11.0526 17.825C11.0526 20.6885 13.2742 23 16.0263 23C18.7784 23 21 20.6885 21 17.825C21 14.9615 18.7784 12.65 16.0263 12.65ZM16.0263 20.7C14.5011 20.7 13.2632 19.412 13.2632 17.825C13.2632 16.238 14.5011 14.95 16.0263 14.95C17.5516 14.95 18.7895 16.238 18.7895 17.825C18.7895 19.412 17.5516 20.7 16.0263 20.7ZM0 22.425H8.8421V13.225H0V22.425ZM2.21053 15.525H6.63158V20.125H2.21053V15.525Z" fill="#156BA8"/>
</svg>
