<svg width="25" height="24" viewBox="0 0 25 24" fill="none" xmlns="http://www.w3.org/2000/svg">
<mask id="mask0_1_795" style="mask-type:alpha" maskUnits="userSpaceOnUse" x="0" y="0" width="25" height="24">
<rect x="0.760742" width="23.86" height="24" fill="#156BA8"/>
</mask>
<g mask="url(#mask0_1_795)">
<path d="M12.4173 22.35L12.2185 19.175H11.9451C9.57568 19.1083 7.57078 18.2293 5.93041 16.538C4.29003 14.846 3.46985 12.8 3.46985 10.4C3.46985 7.95 4.31489 5.875 6.00497 4.175C7.69505 2.475 9.75794 1.625 12.1936 1.625C13.4032 1.625 14.5342 1.854 15.5867 2.312C16.6386 2.77067 17.5621 3.4 18.3575 4.2C19.1528 5 19.7785 5.929 20.2345 6.987C20.6898 8.04567 20.9174 9.18333 20.9174 10.4C20.9174 11.7167 20.6981 12.9707 20.2593 14.162C19.8199 15.354 19.2191 16.4583 18.4569 17.475C17.6947 18.4917 16.796 19.4127 15.7607 20.238C14.7248 21.0627 13.6103 21.7667 12.4173 22.35ZM14.6791 18.25C15.8555 17.25 16.8122 16.0793 17.5492 14.738C18.2869 13.396 18.6557 11.95 18.6557 10.4C18.6557 8.58333 18.0304 7.04567 16.7797 5.787C15.5284 4.529 13.9997 3.9 12.1936 3.9C10.3876 3.9 8.85922 4.529 7.60856 5.787C6.35724 7.04567 5.73157 8.58333 5.73157 10.4C5.73157 12.2167 6.35724 13.754 7.60856 15.012C8.85922 16.2707 10.3876 16.9 12.1936 16.9H14.6791V18.25ZM12.1688 15.95C12.4836 15.95 12.7447 15.8417 12.9522 15.625C13.159 15.4083 13.2624 15.15 13.2624 14.85C13.2624 14.5333 13.159 14.2707 12.9522 14.062C12.7447 13.854 12.4836 13.75 12.1688 13.75C11.8705 13.75 11.6137 13.854 11.3983 14.062C11.1829 14.2707 11.0752 14.5333 11.0752 14.85C11.0752 15.15 11.1829 15.4083 11.3983 15.625C11.6137 15.8417 11.8705 15.95 12.1688 15.95ZM11.3735 12.725H13.0138C13.0138 12.2083 13.0679 11.8457 13.1759 11.637C13.2833 11.429 13.5855 11.0667 14.0826 10.55C14.3974 10.25 14.6542 9.925 14.853 9.575C15.0519 9.225 15.1513 8.84167 15.1513 8.425C15.1513 7.54167 14.8613 6.88333 14.2814 6.45C13.7015 6.01667 13.0055 5.8 12.1936 5.8C11.4646 5.8 10.8393 6.01667 10.3177 6.45C9.79539 6.88333 9.42655 7.40833 9.21115 8.025L10.7521 8.625C10.835 8.34167 10.9884 8.05833 11.2124 7.775C11.4358 7.49167 11.7628 7.35 12.1936 7.35C12.6245 7.35 12.9436 7.46667 13.151 7.7C13.3578 7.93333 13.4612 8.19167 13.4612 8.475C13.4612 8.74167 13.3784 8.98733 13.2127 9.212C13.047 9.43733 12.8564 9.65833 12.641 9.875C12.0611 10.375 11.7048 10.779 11.5723 11.087C11.4397 11.3957 11.3735 11.9417 11.3735 12.725Z" fill="#156BA8"/>
</g>
</svg>
