<svg width="66" height="66" viewBox="0 0 66 66" fill="none" xmlns="http://www.w3.org/2000/svg">
<ellipse cx="33.07" cy="32.8641" rx="32.6724" ry="32.8641" fill="white"/>
<mask id="mask0_1_770" style="mask-type:alpha" maskUnits="userSpaceOnUse" x="19" y="17" width="30" height="30">
<rect x="19.2867" y="17.4595" width="28.8308" height="29" fill="#156BA8"/>
</mask>
<g mask="url(#mask0_1_770)">
<path d="M27.0872 44.4595C26.1214 44.4595 25.3013 44.1198 24.6271 43.4404C23.9528 42.761 23.6157 41.9348 23.6157 40.9616C23.6157 39.9701 23.9528 39.1346 24.6271 38.4552C25.3013 37.7759 26.1214 37.4362 27.0872 37.4362C27.3423 37.4362 27.5883 37.4637 27.8252 37.5188C28.0621 37.5739 28.2717 37.6473 28.4539 37.7391L29.9026 35.8938C29.4106 35.3429 29.0644 34.7095 28.8639 33.9934C28.6635 33.2773 28.6088 32.5703 28.6999 31.8726L26.6498 31.1565C26.3218 31.6155 25.9118 31.9872 25.4198 32.2714C24.9277 32.5564 24.3719 32.6989 23.7524 32.6989C22.7865 32.6989 21.9665 32.3544 21.2923 31.6655C20.618 30.9773 20.2809 30.1466 20.2809 29.1735C20.2809 28.2003 20.618 27.374 21.2923 26.6946C21.9665 26.0153 22.7865 25.6756 23.7524 25.6756C24.7364 25.6756 25.5655 26.0153 26.2398 26.6946C26.9141 27.374 27.2512 28.2003 27.2512 29.1735V29.3938L29.3013 30.1374C29.6657 29.4948 30.1486 28.9439 30.75 28.4849C31.3513 28.0259 32.0256 27.7321 32.7727 27.6035V25.3451C32.062 25.1431 31.4607 24.7391 30.9687 24.1332C30.4766 23.5273 30.2306 22.802 30.2306 21.9574C30.2306 20.9842 30.5678 20.1579 31.242 19.4785C31.9163 18.7992 32.7363 18.4595 33.7021 18.4595C34.6679 18.4595 35.488 18.7992 36.1622 19.4785C36.8365 20.1579 37.1736 20.9842 37.1736 21.9574C37.1736 22.802 36.9232 23.5273 36.4224 24.1332C35.9209 24.7391 35.324 25.1431 34.6315 25.3451V27.6035C35.3786 27.7504 36.0529 28.0486 36.6542 28.4981C37.2556 28.9483 37.7385 29.504 38.103 30.165L40.153 29.3938V29.1735C40.153 28.2003 40.4949 27.374 41.1786 26.6946C41.8616 26.0153 42.686 25.6756 43.6519 25.6756C44.6177 25.6756 45.4377 26.0153 46.112 26.6946C46.7862 27.374 47.1233 28.2003 47.1233 29.1735C47.1233 30.165 46.7862 31.0004 46.112 31.6798C45.4377 32.3592 44.6177 32.6989 43.6519 32.6989C43.0323 32.6989 42.4717 32.5564 41.9702 32.2714C41.4695 31.9872 41.0642 31.6064 40.7544 31.129L38.677 31.8726C38.7863 32.5887 38.7408 33.2956 38.5403 33.9934C38.3399 34.6911 37.9936 35.3246 37.5016 35.8938L38.9503 37.7116C39.1508 37.6198 39.3647 37.5507 39.5921 37.5045C39.8203 37.4589 40.0619 37.4362 40.3171 37.4362C41.2829 37.4362 42.1029 37.7803 42.7772 38.4685C43.4514 39.1574 43.7885 39.9884 43.7885 40.9616C43.7885 41.9348 43.4514 42.761 42.7772 43.4404C42.1029 44.1198 41.2829 44.4595 40.3171 44.4595C39.3512 44.4595 38.5268 44.1198 37.8438 43.4404C37.1601 42.761 36.8182 41.9348 36.8182 40.9616C36.8182 40.576 36.882 40.204 37.0096 39.8456C37.1371 39.4879 37.3012 39.1622 37.5016 38.8684L36.0802 37.0506C35.3331 37.4545 34.536 37.6565 33.689 37.6565C32.8413 37.6565 32.0438 37.4545 31.2967 37.0506L29.9026 38.8684C30.1031 39.1622 30.2671 39.4879 30.3946 39.8456C30.5222 40.204 30.586 40.576 30.586 40.9616C30.586 41.9348 30.2445 42.761 29.5615 43.4404C28.8778 44.1198 28.053 44.4595 27.0872 44.4595ZM23.7524 30.2752C24.0622 30.2752 24.322 30.1694 24.5319 29.9579C24.7411 29.7471 24.8457 29.4856 24.8457 29.1735C24.8457 28.8613 24.7411 28.5998 24.5319 28.389C24.322 28.1775 24.0622 28.0718 23.7524 28.0718C23.4426 28.0718 23.1831 28.1775 22.9739 28.389C22.7639 28.5998 22.659 28.8613 22.659 29.1735C22.659 29.4856 22.7639 29.7471 22.9739 29.9579C23.1831 30.1694 23.4426 30.2752 23.7524 30.2752ZM27.0872 42.0633C27.397 42.0633 27.6565 41.9575 27.8657 41.746C28.0756 41.5352 28.1805 41.2737 28.1805 40.9616C28.1805 40.6494 28.0756 40.388 27.8657 40.1772C27.6565 39.9657 27.397 39.8599 27.0872 39.8599C26.7774 39.8599 26.5179 39.9657 26.3087 40.1772C26.0988 40.388 25.9938 40.6494 25.9938 40.9616C25.9938 41.2737 26.0988 41.5352 26.3087 41.746C26.5179 41.9575 26.7774 42.0633 27.0872 42.0633ZM33.7021 23.059C34.0119 23.059 34.2718 22.9533 34.4817 22.7418C34.6909 22.531 34.7955 22.2695 34.7955 21.9574C34.7955 21.6452 34.6909 21.3834 34.4817 21.1718C34.2718 20.9611 34.0119 20.8557 33.7021 20.8557C33.3923 20.8557 33.1328 20.9611 32.9236 21.1718C32.7137 21.3834 32.6087 21.6452 32.6087 21.9574C32.6087 22.2695 32.7137 22.531 32.9236 22.7418C33.1328 22.9533 33.3923 23.059 33.7021 23.059ZM33.7021 35.1502C34.4128 35.1502 35.0142 34.9023 35.5062 34.4065C35.9982 33.9107 36.2442 33.3048 36.2442 32.5887C36.2442 31.8726 35.9982 31.2667 35.5062 30.7709C35.0142 30.2752 34.4128 30.0273 33.7021 30.0273C32.9914 30.0273 32.3901 30.2752 31.898 30.7709C31.406 31.2667 31.16 31.8726 31.16 32.5887C31.16 33.3048 31.406 33.9107 31.898 34.4065C32.3901 34.9023 32.9914 35.1502 33.7021 35.1502ZM40.3171 42.0633C40.6268 42.0633 40.8867 41.9575 41.0966 41.746C41.3058 41.5352 41.4104 41.2737 41.4104 40.9616C41.4104 40.6494 41.3058 40.388 41.0966 40.1772C40.8867 39.9657 40.6268 39.8599 40.3171 39.8599C40.0073 39.8599 39.7474 39.9657 39.5375 40.1772C39.3283 40.388 39.2237 40.6494 39.2237 40.9616C39.2237 41.2737 39.3283 41.5352 39.5375 41.746C39.7474 41.9575 40.0073 42.0633 40.3171 42.0633ZM43.6519 30.2752C43.9617 30.2752 44.2211 30.1694 44.4303 29.9579C44.6403 29.7471 44.7452 29.4856 44.7452 29.1735C44.7452 28.8613 44.6403 28.5998 44.4303 28.389C44.2211 28.1775 43.9617 28.0718 43.6519 28.0718C43.3421 28.0718 43.0826 28.1775 42.8734 28.389C42.6634 28.5998 42.5585 28.8613 42.5585 29.1735C42.5585 29.4856 42.6634 29.7471 42.8734 29.9579C43.0826 30.1694 43.3421 30.2752 43.6519 30.2752Z" fill="#156BA8"/>
</g>
</svg>
