<svg width="22" height="21" viewBox="0 0 22 21" fill="none" xmlns="http://www.w3.org/2000/svg">
<path d="M13.6435 3.45286C13.6435 4.86263 12.4752 6.00573 11.0434 6.00573C9.6111 6.00573 8.44316 4.86262 8.44316 3.45286C8.44316 2.04311 9.6111 0.9 11.0434 0.9C12.4756 0.9 13.6435 2.04348 13.6435 3.45286ZM11.9509 3.45323C11.9509 2.96513 11.5456 2.56476 11.0434 2.56476C10.5411 2.56476 10.1358 2.96513 10.1358 3.45323C10.1358 3.94133 10.5411 4.3417 11.0434 4.3417C11.5456 4.3417 11.9509 3.94133 11.9509 3.45323Z" fill="#156BA8" stroke="#156BA8" stroke-width="0.2"/>
<path d="M13.6439 12.8854C13.6439 14.2954 12.4754 15.4387 11.0433 15.4387C9.61084 15.4387 8.44274 14.2954 8.44274 12.8854C8.44274 11.4755 9.61084 10.3322 11.0433 10.3322C12.4758 10.3322 13.6439 11.4759 13.6439 12.8854ZM11.951 12.8858C11.951 12.3976 11.5456 11.9972 11.0433 11.9972C10.541 11.9972 10.1356 12.3976 10.1356 12.8858C10.1356 13.374 10.541 13.7744 11.0433 13.7744C11.5456 13.7744 11.951 13.374 11.951 12.8858Z" fill="#156BA8" stroke="#156BA8" stroke-width="0.2"/>
<path d="M7.42981 12.8854C7.42981 14.2954 6.26132 15.4387 4.82925 15.4387C3.39679 15.4387 2.22868 14.2954 2.22868 12.8854C2.22868 11.4755 3.39679 10.3322 4.82925 10.3322C6.26172 10.3322 7.42981 11.4759 7.42981 12.8854ZM5.73694 12.8858C5.73694 12.3976 5.33155 11.9972 4.82925 11.9972C4.32694 11.9972 3.92156 12.3976 3.92156 12.8858C3.92156 13.374 4.32694 13.7744 4.82925 13.7744C5.33155 13.7744 5.73694 13.374 5.73694 12.8858Z" fill="#156BA8" stroke="#156BA8" stroke-width="0.2"/>
<path d="M14.7363 12.8855V12.8854C14.7363 11.4755 15.9044 10.3322 17.3369 10.3322C18.7694 10.3322 19.9375 11.4759 19.9375 12.8854C19.9375 14.2954 18.769 15.4387 17.3369 15.4387C15.9048 15.4387 14.7367 14.2954 14.7363 12.8855ZM18.2446 12.8858C18.2446 12.3976 17.8392 11.9972 17.3369 11.9972C16.835 11.9972 16.4296 12.3976 16.4292 12.8859C16.4293 13.374 16.8346 13.7744 17.3369 13.7744C17.8392 13.7744 18.2446 13.374 18.2446 12.8858Z" fill="#156BA8" stroke="#156BA8" stroke-width="0.2"/>
<path d="M9.85535 7.92022C9.85535 9.33019 8.68686 10.4734 7.25478 10.4734C5.82232 10.4734 4.65422 9.33018 4.65422 7.92022C4.65422 6.51026 5.82232 5.367 7.25478 5.367C8.68724 5.367 9.85535 6.51026 9.85535 7.92022ZM8.16247 7.92022C8.16247 7.43204 7.75709 7.03161 7.25478 7.03161C6.75248 7.03161 6.34709 7.43204 6.34709 7.92022C6.34709 8.4084 6.75248 8.80884 7.25478 8.80884C7.75709 8.80884 8.16247 8.4084 8.16247 7.92022Z" fill="#156BA8" stroke="#156BA8" stroke-width="0.2"/>
<path d="M8.88538 18.9227C8.88538 19.3844 8.50477 19.755 8.03894 19.755C7.57309 19.755 7.19251 19.384 7.19251 18.9227C7.19251 16.8643 8.8988 15.1934 10.9918 15.1934C13.0853 15.1934 14.7912 16.8647 14.7912 18.9227C14.7912 19.3844 14.4106 19.755 13.9448 19.755C13.4789 19.755 13.0983 19.3844 13.0983 18.9227C13.0983 17.7861 12.1551 16.858 10.9918 16.858C9.82858 16.858 8.88538 17.7861 8.88538 18.9227Z" fill="#156BA8" stroke="#156BA8" stroke-width="0.2"/>
<path d="M21.0198 19.8219L21.0198 19.822C20.9203 20.1979 20.5758 20.4449 20.201 20.4449C20.1304 20.4449 20.0591 20.4362 19.9885 20.4184L19.9883 20.4184C19.5365 20.3036 19.263 19.8498 19.381 19.4032L19.381 19.4031C19.4224 19.2472 19.4434 19.0855 19.4434 18.9227C19.4434 17.7934 18.4251 16.858 17.1525 16.858C15.88 16.858 14.8617 17.7934 14.8617 18.9227C14.8617 19.0598 14.8766 19.1964 14.906 19.3287L14.906 19.3288C15.0056 19.7797 14.7136 20.2224 14.2581 20.3193C13.8034 20.416 13.3513 20.1332 13.2518 19.6828L13.2518 19.6828C13.1968 19.4341 13.1688 19.1786 13.1688 18.9227C13.1688 16.8598 14.9623 15.1934 17.1525 15.1934C19.3428 15.1934 21.1362 16.8602 21.1362 18.9227C21.1362 19.2264 21.0971 19.529 21.0198 19.8219ZM19.5434 18.9227C19.5434 19.0941 19.5213 19.2644 19.4777 19.4288L20.9231 19.7964C20.9982 19.5119 21.0362 19.2179 21.0362 18.9227C21.0362 16.9217 19.294 15.2934 17.1525 15.2934C15.011 15.2934 13.2688 16.9213 13.2688 18.9227C13.2688 19.1713 13.2961 19.4196 13.3494 19.6613C13.4368 20.0563 13.8346 20.3072 14.2373 20.2215C14.64 20.1358 14.8957 19.7455 14.8083 19.3504C14.7774 19.2109 14.7617 19.067 14.7617 18.9227C14.7617 17.7291 15.8343 16.758 17.1525 16.758C18.4707 16.758 19.5434 17.7291 19.5434 18.9227Z" fill="#156BA8" stroke="#156BA8" stroke-width="0.2"/>
<path d="M2.65522 19.4029L2.65521 19.4029C2.6138 19.2469 2.59287 19.0853 2.59287 18.9225C2.59287 17.7932 3.61115 16.8578 4.88371 16.8578C6.15628 16.8578 7.17455 17.7932 7.17455 18.9225C7.17455 19.0596 7.15965 19.1962 7.13028 19.3285L7.13026 19.3286C7.03059 19.7795 7.32227 20.2217 7.77803 20.319C7.77803 20.319 7.77804 20.3191 7.77805 20.3191L7.79892 20.2213L2.65522 19.4029ZM2.65522 19.4029C2.77366 19.8497 2.49964 20.303 2.04846 20.4181L2.65522 19.4029Z" fill="#156BA8" stroke="#156BA8" stroke-width="0.2"/>
<path d="M17.3615 7.92022C17.3615 9.33019 16.193 10.4734 14.7609 10.4734C13.3288 10.4734 12.1603 9.33019 12.1603 7.92022C12.1603 6.51025 13.3288 5.367 14.7609 5.367C16.1934 5.367 17.3615 6.51026 17.3615 7.92022ZM15.6686 7.92022C15.6686 7.43204 15.2632 7.03161 14.7609 7.03161C14.259 7.03161 13.8532 7.43207 13.8532 7.92022C13.8532 8.4084 14.2586 8.80884 14.7609 8.80884C15.2632 8.80884 15.6686 8.4084 15.6686 7.92022Z" fill="#156BA8" stroke="#156BA8" stroke-width="0.2"/>
</svg>
