<svg width="67" height="66" viewBox="0 0 67 66" fill="none" xmlns="http://www.w3.org/2000/svg">
<ellipse cx="33.3689" cy="32.8641" rx="32.6724" ry="32.8641" fill="white"/>
<mask id="mask0_1_781" style="mask-type:alpha" maskUnits="userSpaceOnUse" x="19" y="18" width="30" height="29">
<rect x="19.5857" y="18" width="28.8308" height="29" fill="#156BA8"/>
</mask>
<g mask="url(#mask0_1_781)">
<path d="M23.1294 45.8521V40.7469C22.4286 40.5052 21.8532 40.0723 21.4031 39.4479C20.9522 38.8236 20.7268 38.1188 20.7268 37.3334V25.1896H23.1294V20.4167C23.1294 20.0542 23.2495 19.7521 23.4898 19.5104C23.73 19.2688 24.0303 19.1479 24.3907 19.1479C24.7511 19.1479 25.0514 19.2688 25.2917 19.5104C25.5319 19.7521 25.6521 20.0542 25.6521 20.4167V25.1896H28.0546V37.3334C28.0546 38.1188 27.8296 38.8236 27.3795 39.4479C26.9286 40.0723 26.3528 40.5052 25.6521 40.7469V45.8521H23.1294ZM32.7396 45.8521V40.7469C32.0389 40.5052 31.4635 40.0723 31.0134 39.4479C30.5625 38.8236 30.3371 38.1188 30.3371 37.3334V25.1896H32.7396V20.4167C32.7396 20.0542 32.8598 19.7521 33.1 19.5104C33.3403 19.2688 33.6406 19.1479 34.001 19.1479C34.3614 19.1479 34.6617 19.2688 34.9019 19.5104C35.1422 19.7521 35.2623 20.0542 35.2623 20.4167V25.1896H37.6649V37.3334C37.6649 38.1188 37.4399 38.8236 36.9898 39.4479C36.5389 40.0723 35.9631 40.5052 35.2623 40.7469V45.8521H32.7396ZM42.3499 45.8521V40.7469C41.6491 40.5052 41.0733 40.0723 40.6224 39.4479C40.1724 38.8236 39.9473 38.1188 39.9473 37.3334V25.1896H42.3499V20.4167C42.3499 20.0542 42.47 19.7521 42.7103 19.5104C42.9505 19.2688 43.2509 19.1479 43.6112 19.1479C43.9716 19.1479 44.2719 19.2688 44.5122 19.5104C44.7525 19.7521 44.8726 20.0542 44.8726 20.4167V25.1896H47.2752V37.3334C47.2752 38.1188 47.0501 38.8236 46.6 39.4479C46.1492 40.0723 45.5733 40.5052 44.8726 40.7469V45.8521H42.3499ZM23.2495 27.7271V32.4396H25.5319V27.7271H23.2495ZM32.8598 27.7271V32.4396H35.1422V27.7271H32.8598ZM42.47 27.7271V32.4396H44.7525V27.7271H42.47ZM24.3907 38.4813C24.7111 38.4813 24.9813 38.3705 25.2016 38.149C25.4218 37.9275 25.5319 37.6556 25.5319 37.3334V34.9771H23.2495V37.3334C23.2495 37.6556 23.3596 37.9275 23.5799 38.149C23.8001 38.3705 24.0704 38.4813 24.3907 38.4813ZM34.001 38.4813C34.3213 38.4813 34.5916 38.3705 34.8118 38.149C35.0321 37.9275 35.1422 37.6556 35.1422 37.3334V34.9771H32.8598V37.3334C32.8598 37.6556 32.9699 37.9275 33.1901 38.149C33.4103 38.3705 33.6806 38.4813 34.001 38.4813ZM43.6112 38.4813C43.9316 38.4813 44.2019 38.3705 44.4221 38.149C44.6423 37.9275 44.7525 37.6556 44.7525 37.3334V34.9771H42.47V37.3334C42.47 37.6556 42.5801 37.9275 42.8004 38.149C43.0206 38.3705 43.2909 38.4813 43.6112 38.4813Z" fill="#156BA8"/>
</g>
</svg>
