<svg width="66" height="66" viewBox="0 0 66 66" fill="none" xmlns="http://www.w3.org/2000/svg">
<ellipse cx="33.07" cy="32.8641" rx="32.6724" ry="32.8641" fill="white"/>
<path d="M34.0423 18L26.8477 30.15H41.2369L34.0423 18ZM34.0423 23.184L36.567 27.45H31.5046L34.0423 23.184ZM41.2369 32.85C37.9797 32.85 35.3504 35.5635 35.3504 38.925C35.3504 42.2865 37.9797 45 41.2369 45C44.4941 45 47.1234 42.2865 47.1234 38.925C47.1234 35.5635 44.4941 32.85 41.2369 32.85ZM41.2369 42.3C39.4317 42.3 37.9666 40.788 37.9666 38.925C37.9666 37.062 39.4317 35.55 41.2369 35.55C43.0421 35.55 44.5072 37.062 44.5072 38.925C44.5072 40.788 43.0421 42.3 41.2369 42.3ZM22.2693 44.325H32.7342V33.525H22.2693V44.325ZM24.8855 36.225H30.118V41.625H24.8855V36.225Z" fill="#156BA8"/>
</svg>
