<svg width="20" height="20" viewBox="0 0 20 20" fill="none" xmlns="http://www.w3.org/2000/svg">
<mask id="mask0_16_61" style="mask-type:alpha" maskUnits="userSpaceOnUse" x="0" y="0" width="20" height="20">
<rect width="20" height="20" fill="#D9D9D9"/>
</mask>
<g mask="url(#mask0_16_61)">
<path d="M2.45834 19.2083V15.6875C1.97223 15.5208 1.57306 15.2222 1.26084 14.7917C0.948061 14.3611 0.791672 13.875 0.791672 13.3333V4.95835H2.45834V1.66668C2.45834 1.41668 2.54167 1.20835 2.70834 1.04168C2.87501 0.875015 3.08334 0.791681 3.33334 0.791681C3.58334 0.791681 3.79167 0.875015 3.95834 1.04168C4.12501 1.20835 4.20834 1.41668 4.20834 1.66668V4.95835H5.87501V13.3333C5.87501 13.875 5.71889 14.3611 5.40667 14.7917C5.09389 15.2222 4.69445 15.5208 4.20834 15.6875V19.2083H2.45834ZM9.12501 19.2083V15.6875C8.63889 15.5208 8.23973 15.2222 7.92751 14.7917C7.61473 14.3611 7.45834 13.875 7.45834 13.3333V4.95835H9.12501V1.66668C9.12501 1.41668 9.20834 1.20835 9.37501 1.04168C9.54167 0.875015 9.75001 0.791681 10 0.791681C10.25 0.791681 10.4583 0.875015 10.625 1.04168C10.7917 1.20835 10.875 1.41668 10.875 1.66668V4.95835H12.5417V13.3333C12.5417 13.875 12.3856 14.3611 12.0733 14.7917C11.7606 15.2222 11.3611 15.5208 10.875 15.6875V19.2083H9.12501ZM15.7917 19.2083V15.6875C15.3056 15.5208 14.9061 15.2222 14.5933 14.7917C14.2811 14.3611 14.125 13.875 14.125 13.3333V4.95835H15.7917V1.66668C15.7917 1.41668 15.875 1.20835 16.0417 1.04168C16.2083 0.875015 16.4167 0.791681 16.6667 0.791681C16.9167 0.791681 17.125 0.875015 17.2917 1.04168C17.4583 1.20835 17.5417 1.41668 17.5417 1.66668V4.95835H19.2083V13.3333C19.2083 13.875 19.0522 14.3611 18.74 14.7917C18.4272 15.2222 18.0278 15.5208 17.5417 15.6875V19.2083H15.7917ZM2.54167 6.70835V9.95835H4.12501V6.70835H2.54167ZM9.20834 6.70835V9.95835H10.7917V6.70835H9.20834ZM15.875 6.70835V9.95835H17.4583V6.70835H15.875ZM3.33334 14.125C3.55556 14.125 3.74306 14.0486 3.89584 13.8958C4.04862 13.7431 4.12501 13.5556 4.12501 13.3333V11.7083H2.54167V13.3333C2.54167 13.5556 2.61806 13.7431 2.77084 13.8958C2.92362 14.0486 3.11112 14.125 3.33334 14.125ZM10 14.125C10.2222 14.125 10.4097 14.0486 10.5625 13.8958C10.7153 13.7431 10.7917 13.5556 10.7917 13.3333V11.7083H9.20834V13.3333C9.20834 13.5556 9.28473 13.7431 9.43751 13.8958C9.59028 14.0486 9.77778 14.125 10 14.125ZM16.6667 14.125C16.8889 14.125 17.0764 14.0486 17.2292 13.8958C17.3819 13.7431 17.4583 13.5556 17.4583 13.3333V11.7083H15.875V13.3333C15.875 13.5556 15.9514 13.7431 16.1042 13.8958C16.257 14.0486 16.4444 14.125 16.6667 14.125Z" fill="#156BA8"/>
</g>
</svg>
