<svg width="25" height="25" viewBox="0 0 25 25" fill="none" xmlns="http://www.w3.org/2000/svg">
<mask id="mask0_16_67" style="mask-type:alpha" maskUnits="userSpaceOnUse" x="0" y="0" width="25" height="25">
<rect width="25" height="25" fill="#156BA8"/>
</mask>
<g mask="url(#mask0_16_67)">
<path d="M9.97401 14.375L10.9115 11.25L8.38547 9.27084H11.5105L12.5001 6.17188L13.4896 9.27084H16.6146L14.0626 11.25L15.0001 14.375L12.5001 12.4219L9.97401 14.375ZM6.14589 24.1406V16.0677C5.45144 15.3212 4.91325 14.4618 4.53131 13.4896C4.14936 12.5174 3.95839 11.4844 3.95839 10.3906C3.95839 7.9948 4.78756 5.96771 6.44589 4.30938C8.10353 2.65174 10.1216 1.82292 12.5001 1.82292C14.8785 1.82292 16.8966 2.65174 18.5542 4.30938C20.2126 5.96771 21.0417 7.9948 21.0417 10.3906C21.0417 11.4844 20.8507 12.5174 20.4688 13.4896C20.0869 14.4618 19.5487 15.3212 18.8542 16.0677V24.1406L12.5001 22.0573L6.14589 24.1406ZM12.5001 16.5625C14.2188 16.5625 15.6771 15.959 16.8751 14.7521C18.073 13.5458 18.6719 12.092 18.6719 10.3906C18.6719 8.67188 18.073 7.20903 16.8751 6.00209C15.6771 4.79584 14.2188 4.19271 12.5001 4.19271C10.7813 4.19271 9.32297 4.79584 8.12506 6.00209C6.92714 7.20903 6.32818 8.67188 6.32818 10.3906C6.32818 12.092 6.92714 13.5458 8.12506 14.7521C9.32297 15.959 10.7813 16.5625 12.5001 16.5625ZM8.33339 20.9635L12.5001 19.8438L16.6667 20.9635V17.8125C16.0591 18.1597 15.4039 18.4333 14.7011 18.6333C13.9976 18.8326 13.2639 18.9323 12.5001 18.9323C11.7362 18.9323 11.0025 18.8326 10.299 18.6333C9.59624 18.4333 8.94103 18.1597 8.33339 17.8125V20.9635Z" fill="#156BA8"/>
</g>
</svg>
