<svg width="31" height="31" viewBox="0 0 31 31" fill="none" xmlns="http://www.w3.org/2000/svg">
<path d="M15.5 31C11.1944 31 7.53472 29.4931 4.52083 26.4792C1.50694 23.4653 0 19.8056 0 15.5C0 11.1944 1.50694 7.53472 4.52083 4.52083C7.53472 1.50694 11.1944 0 15.5 0C15.7296 0 15.9736 0.00717593 16.2319 0.0215278C16.4903 0.0358796 16.8204 0.0574074 17.2222 0.0861111C16.1889 1.00463 15.3852 2.13843 14.8111 3.4875C14.237 4.83657 13.95 6.25741 13.95 7.75C13.95 10.3333 14.8542 12.5292 16.6625 14.3375C18.4708 16.1458 20.6667 17.05 23.25 17.05C24.7426 17.05 26.1634 16.7845 27.5125 16.2535C28.8616 15.7225 29.9954 14.9833 30.9139 14.0361C30.9426 14.3806 30.9641 14.6604 30.9785 14.8757C30.9928 15.091 31 15.2991 31 15.5C31 19.8056 29.4931 23.4653 26.4792 26.4792C23.4653 29.4931 19.8056 31 15.5 31ZM15.5 28.4167C18.6287 28.4167 21.3556 27.4479 23.6806 25.5104C26.0056 23.5729 27.4551 21.2981 28.0292 18.6861C27.3116 19.0019 26.5414 19.2387 25.7185 19.3965C24.8957 19.5544 24.0728 19.6333 23.25 19.6333C19.958 19.6333 17.1544 18.4758 14.8393 16.1607C12.5242 13.8456 11.3667 11.042 11.3667 7.75C11.3667 7.06111 11.4384 6.32199 11.5819 5.53264C11.7255 4.74329 11.9838 3.8463 12.3569 2.84167C9.54398 3.61667 7.21181 5.18819 5.36042 7.55625C3.50903 9.92431 2.58333 12.5722 2.58333 15.5C2.58333 19.088 3.83912 22.1377 6.35069 24.6493C8.86227 27.1609 11.912 28.4167 15.5 28.4167Z" fill="#156BA8"/>
</svg>
