<svg width="49" height="46" viewBox="0 0 49 46" fill="none" xmlns="http://www.w3.org/2000/svg">
<path d="M30.5776 6.11611C30.5776 9.33663 27.9077 11.9523 24.6307 11.9523C21.3527 11.9523 18.6837 9.33663 18.6837 6.11611C18.6837 2.8956 21.3527 0.279883 24.6307 0.279883C27.9086 0.279883 30.5776 2.89647 30.5776 6.11611ZM26.8869 6.11697C26.8869 4.89918 25.8767 3.90535 24.6307 3.90535C23.3847 3.90535 22.3744 4.89918 22.3744 6.11697C22.3744 7.33476 23.3847 8.32859 24.6307 8.32859C25.8767 8.32859 26.8869 7.33476 26.8869 6.11697Z" fill="#156BA8" stroke="#156BA8" stroke-width="0.2"/>
<path d="M30.5785 28.1751C30.5785 31.3961 27.9082 34.0122 24.6307 34.0122C21.3522 34.0122 18.6829 31.3961 18.6829 28.1751C18.6829 24.9541 21.3522 22.338 24.6307 22.338C27.9091 22.338 30.5785 24.955 30.5785 28.1751ZM26.8872 28.1759C26.8872 26.958 25.8769 25.964 24.6307 25.964C23.3845 25.964 22.3741 26.958 22.3741 28.1759C22.3741 29.3939 23.3845 30.3879 24.6307 30.3879C25.8769 30.3879 26.8872 29.3939 26.8872 28.1759Z" fill="#156BA8" stroke="#156BA8" stroke-width="0.2"/>
<path d="M16.0463 28.1751C16.0463 31.3961 13.3761 34.0122 10.0985 34.0122C6.82009 34.0122 4.15073 31.3961 4.15073 28.1751C4.15073 24.9541 6.82009 22.338 10.0985 22.338C13.377 22.338 16.0463 24.955 16.0463 28.1751ZM12.3551 28.1759C12.3551 26.958 11.3447 25.964 10.0985 25.964C8.85233 25.964 7.84195 26.958 7.84195 28.1759C7.84195 29.3939 8.85233 30.3879 10.0985 30.3879C11.3447 30.3879 12.3551 29.3939 12.3551 28.1759Z" fill="#156BA8" stroke="#156BA8" stroke-width="0.2"/>
<path d="M33.401 28.1751V28.1751C33.401 24.9541 36.0704 22.338 39.3488 22.338C42.6272 22.338 45.2966 24.955 45.2966 28.1751C45.2966 31.3961 42.6263 34.0122 39.3488 34.0122C36.0712 34.0122 33.4019 31.3961 33.401 28.1751ZM41.6053 28.1759C41.6053 26.958 40.595 25.964 39.3488 25.964C38.1035 25.964 37.093 26.9579 37.0922 28.176C37.0922 29.394 38.1026 30.3879 39.3488 30.3879C40.595 30.3879 41.6053 29.3939 41.6053 28.1759Z" fill="#156BA8" stroke="#156BA8" stroke-width="0.2"/>
<path d="M21.7186 16.5634C21.7186 19.7844 19.0484 22.4005 15.7708 22.4005C12.4924 22.4005 9.82305 19.7844 9.82305 16.5634C9.82305 13.3424 12.4924 10.7263 15.7708 10.7263C19.0493 10.7263 21.7186 13.3424 21.7186 16.5634ZM18.0274 16.5634C18.0274 15.3454 17.017 14.3515 15.7708 14.3515C14.5247 14.3515 13.5143 15.3454 13.5143 16.5634C13.5143 17.7814 14.5247 18.7754 15.7708 18.7754C17.017 18.7754 18.0274 17.7814 18.0274 16.5634Z" fill="#156BA8" stroke="#156BA8" stroke-width="0.2"/>
<path d="M19.4503 42.2942C19.4503 43.2974 18.6225 44.1067 17.6046 44.1067C16.5867 44.1067 15.759 43.2965 15.759 42.2942C15.759 37.5567 19.687 33.7067 24.5103 33.7067C29.3344 33.7067 33.2615 37.5576 33.2615 42.2942C33.2615 43.2974 32.4338 44.1067 31.4159 44.1067C30.398 44.1067 29.5703 43.2974 29.5703 42.2942C29.5703 39.5597 27.3022 37.3318 24.5103 37.3318C21.7183 37.3318 19.4503 39.5597 19.4503 42.2942Z" fill="#156BA8" stroke="#156BA8" stroke-width="0.2"/>
<path d="M47.8322 44.3628L47.8322 44.3629C47.6158 45.1804 46.8656 45.72 46.0466 45.72C45.8926 45.72 45.7369 45.701 45.5824 45.6622L45.5821 45.6621C44.5958 45.4116 44.0021 44.4226 44.2585 43.452L44.2585 43.4519C44.3584 43.0759 44.4088 42.6864 44.4088 42.2942C44.4088 39.567 41.9547 37.3318 38.9176 37.3318C35.8805 37.3318 33.4264 39.567 33.4264 42.2942C33.4264 42.6243 33.4623 42.9536 33.5331 43.2726L33.5331 43.2727C33.7497 44.2524 33.1154 45.2176 32.1209 45.4292C31.1271 45.6407 30.1425 45.0221 29.9261 44.0429L29.9261 44.0429C29.7997 43.4707 29.7352 42.8829 29.7352 42.2942C29.7352 37.5522 33.8607 33.7067 38.9176 33.7067C43.9745 33.7067 48.1 37.5531 48.1 42.2942C48.1 42.9929 48.0098 43.6891 47.8322 44.3628Z" fill="#156BA8" stroke="#156BA8" stroke-width="0.2"/>
<path d="M4.88498 43.451L4.88499 43.4511C5.14231 44.4218 4.54755 45.4098 3.56232 45.6612C3.40669 45.7009 3.25088 45.72 3.0977 45.72C2.27864 45.72 1.5295 45.1803 1.31219 44.3629L1.31216 44.3628C1.13363 43.6883 1.0435 42.9929 1.0435 42.2933C1.0435 37.5514 5.16901 33.7058 10.2259 33.7058C15.2828 33.7058 19.4083 37.5522 19.4083 42.2933C19.4083 42.882 19.3438 43.4698 19.2174 44.042C19.001 45.022 18.0164 45.6407 17.0225 45.4283C16.0272 45.2158 15.3938 44.2516 15.6103 43.2719L15.6104 43.2718C15.6812 42.9527 15.7171 42.6235 15.7171 42.2933C15.7171 39.5662 13.263 37.331 10.2259 37.331C7.18879 37.331 4.73471 39.5662 4.73471 42.2933C4.73471 42.6855 4.78511 43.075 4.88498 43.451Z" fill="#156BA8" stroke="#156BA8" stroke-width="0.2"/>
<path d="M39.2723 16.5634C39.2723 19.7844 36.6021 22.4005 33.3245 22.4005C30.047 22.4005 27.3768 19.7844 27.3768 16.5634C27.3768 13.3424 30.047 10.7263 33.3245 10.7263C36.603 10.7263 39.2723 13.3424 39.2723 16.5634ZM35.5811 16.5634C35.5811 15.3454 34.5707 14.3515 33.3245 14.3515C32.0792 14.3515 31.068 15.3455 31.068 16.5634C31.068 17.7814 32.0784 18.7754 33.3245 18.7754C34.5707 18.7754 35.5811 17.7814 35.5811 16.5634Z" fill="#156BA8" stroke="#156BA8" stroke-width="0.2"/>
</svg>
