<svg width="44" height="44" viewBox="0 0 44 44" fill="none" xmlns="http://www.w3.org/2000/svg">
<path d="M21.9883 15C23.9294 15 25.5833 15.6794 26.95 17.0382C28.3167 18.3971 29 20.0471 29 21.9883C29 23.9294 28.3206 25.5833 26.9618 26.95C25.6029 28.3167 23.9529 29 22.0117 29C20.0706 29 18.4167 28.3206 17.05 26.9617C15.6833 25.6029 15 23.9529 15 22.0117C15 20.0706 15.6794 18.4167 17.0383 17.05C18.3971 15.6833 20.0471 15 21.9883 15ZM22 12C19.2333 12 16.875 12.975 14.925 14.925C12.975 16.875 12 19.2333 12 22C12 24.7667 12.975 27.125 14.925 29.075C16.875 31.025 19.2333 32 22 32C24.7667 32 27.125 31.025 29.075 29.075C31.025 27.125 32 24.7667 32 22C32 19.2333 31.025 16.875 29.075 14.925C27.125 12.975 24.7667 12 22 12ZM1.5 20.5C1.075 20.5 0.71875 20.6446 0.43125 20.9337C0.14375 21.2229 0 21.5813 0 22.0087C0 22.4362 0.14375 22.7917 0.43125 23.075C0.71875 23.3583 1.075 23.5 1.5 23.5H6.5C6.925 23.5 7.28125 23.3554 7.56875 23.0662C7.85625 22.7771 8 22.4187 8 21.9913C8 21.5638 7.85625 21.2083 7.56875 20.925C7.28125 20.6417 6.925 20.5 6.5 20.5H1.5ZM37.5 20.5C37.075 20.5 36.7188 20.6446 36.4313 20.9337C36.1438 21.2229 36 21.5813 36 22.0087C36 22.4362 36.1438 22.7917 36.4313 23.075C36.7188 23.3583 37.075 23.5 37.5 23.5H42.5C42.925 23.5 43.2813 23.3554 43.5688 23.0662C43.8563 22.7771 44 22.4187 44 21.9913C44 21.5638 43.8563 21.2083 43.5688 20.925C43.2813 20.6417 42.925 20.5 42.5 20.5H37.5ZM21.9913 36C21.5638 36 21.2083 36.1438 20.925 36.4313C20.6417 36.7188 20.5 37.075 20.5 37.5V42.5C20.5 42.925 20.6446 43.2812 20.9338 43.5687C21.2229 43.8562 21.5813 44 22.0087 44C22.4362 44 22.7917 43.8562 23.075 43.5687C23.3583 43.2812 23.5 42.925 23.5 42.5V37.5C23.5 37.075 23.3554 36.7188 23.0663 36.4313C22.7771 36.1438 22.4187 36 21.9913 36ZM21.9913 0C21.5638 0 21.2083 0.143665 20.925 0.431C20.6417 0.718666 20.5 1.075 20.5 1.5V6.5C20.5 6.925 20.6446 7.28125 20.9338 7.56875C21.2229 7.85625 21.5813 8 22.0087 8C22.4362 8 22.7917 7.85625 23.075 7.56875C23.3583 7.28125 23.5 6.925 23.5 6.5V1.5C23.5 1.075 23.3554 0.718666 23.0663 0.431C22.7771 0.143665 22.4187 0 21.9913 0ZM10 31.9L7.15 34.7C6.85 35 6.70618 35.36 6.71855 35.7801C6.73088 36.2003 6.87298 36.5586 7.14485 36.8551C7.44138 37.1517 7.79972 37.3 8.21985 37.3C8.63995 37.3 9 37.15 9.3 36.85L12.1 34C12.3667 33.7 12.5 33.35 12.5 32.95C12.5 32.55 12.3667 32.2083 12.1 31.925C11.8333 31.6417 11.4917 31.5 11.075 31.5C10.6583 31.5 10.3 31.6333 10 31.9ZM34.7 7.15L31.9 10C31.6333 10.3 31.5 10.6562 31.5 11.0687C31.5 11.4812 31.6417 11.825 31.925 12.1C32.2083 12.4 32.55 12.55 32.95 12.55C33.35 12.55 33.7 12.4 34 12.1L36.85 9.3C37.15 9 37.2938 8.63995 37.2815 8.21985C37.2691 7.79972 37.127 7.44138 36.8552 7.14485C36.5586 6.84828 36.2003 6.7 35.7802 6.7C35.3601 6.7 35 6.85 34.7 7.15ZM31.9 31.9C31.6 32.2 31.45 32.55 31.45 32.95C31.45 33.35 31.6 33.7 31.9 34L34.7 36.85C35 37.15 35.3601 37.2938 35.7802 37.2814C36.2003 37.2691 36.5586 37.127 36.8552 36.8551C37.1517 36.5586 37.3 36.2003 37.3 35.7801C37.3 35.36 37.15 35 36.85 34.7L34 31.9C33.7333 31.6333 33.3939 31.5 32.9818 31.5C32.5697 31.5 32.2091 31.6333 31.9 31.9ZM7.14485 7.14485C6.84828 7.44138 6.7 7.79972 6.7 8.21985C6.7 8.63995 6.85 9 7.15 9.3L10 12.1C10.2933 12.4 10.6417 12.55 11.045 12.55C11.4483 12.55 11.7935 12.4 12.0805 12.1C12.3935 11.8 12.55 11.45 12.55 11.05C12.55 10.65 12.4 10.3 12.1 10L9.3 7.15C9 6.85 8.63995 6.70618 8.21985 6.71855C7.79972 6.73088 7.44138 6.87298 7.14485 7.14485Z" fill="#156BA8"/>
</svg>
