<svg width="15" height="19" viewBox="0 0 15 19" fill="none" xmlns="http://www.w3.org/2000/svg">
<path d="M14.1452 8C14.1452 13.4444 7.73177 18.1111 7.73177 18.1111C7.73177 18.1111 1.31836 13.4444 1.31836 8C1.31836 6.14348 1.99406 4.36301 3.1968 3.05025C4.39955 1.7375 6.03083 1 7.73177 1C9.43271 1 11.064 1.7375 12.2667 3.05025C13.4695 4.36301 14.1452 6.14348 14.1452 8Z" stroke="#BDBDBD" stroke-width="1.5" stroke-linecap="round" stroke-linejoin="round"/>
<path d="M7.73192 10.3334C8.91259 10.3334 9.86972 9.28875 9.86972 8.00008C9.86972 6.71142 8.91259 5.66675 7.73192 5.66675C6.55124 5.66675 5.59412 6.71142 5.59412 8.00008C5.59412 9.28875 6.55124 10.3334 7.73192 10.3334Z" stroke="#BDBDBD" stroke-width="1.5" stroke-linecap="round" stroke-linejoin="round"/>
</svg>
