<svg width="24" height="24" viewBox="0 0 24 24" fill="none" xmlns="http://www.w3.org/2000/svg">
<ellipse cx="11.8884" cy="12" rx="11.8884" ry="12" fill="#156BA8"/>
<path d="M16.8421 10.8889C16.8421 14.7778 11.8886 18.1111 11.8886 18.1111C11.8886 18.1111 6.93506 14.7778 6.93506 10.8889C6.93506 9.56283 7.45695 8.29106 8.38591 7.35338C9.31488 6.4157 10.5748 5.88892 11.8886 5.88892C13.2023 5.88892 14.4623 6.4157 15.3912 7.35338C16.3202 8.29106 16.8421 9.56283 16.8421 10.8889Z" stroke="#E0E7FB" stroke-linecap="round" stroke-linejoin="round"/>
<path d="M11.8886 12.5555C12.8005 12.5555 13.5398 11.8093 13.5398 10.8888C13.5398 9.96836 12.8005 9.22217 11.8886 9.22217C10.9767 9.22217 10.2374 9.96836 10.2374 10.8888C10.2374 11.8093 10.9767 12.5555 11.8886 12.5555Z" stroke="#E0E7FB" stroke-linecap="round" stroke-linejoin="round"/>
</svg>
