<svg width="14" height="14" viewBox="0 0 14 14" fill="none" xmlns="http://www.w3.org/2000/svg">
<path d="M6.99177 14C6.01567 14 5.10262 13.819 4.25264 13.4571C3.40266 13.0952 2.66236 12.5962 2.03173 11.96C1.4011 11.3239 0.904818 10.5781 0.542891 9.72268C0.180964 8.86722 0 7.95143 0 6.97532C0 5.99922 0.180964 5.08617 0.542891 4.23619C0.904818 3.38621 1.4011 2.64865 2.03173 2.0235C2.66236 1.39836 3.40266 0.904818 4.25264 0.542891C5.10262 0.180964 6.01567 0 6.99177 0C7.96788 0 8.88092 0.180964 9.7309 0.542891C10.5809 0.904818 11.3212 1.39836 11.9518 2.0235C12.5825 2.64865 13.0815 3.38621 13.4489 4.23619C13.8163 5.08617 14 5.99922 14 6.97532C14 7.95143 13.8163 8.86722 13.4489 9.72268C13.0815 10.5781 12.5825 11.3239 11.9518 11.96C11.3212 12.5962 10.5809 13.0952 9.7309 13.4571C8.88092 13.819 7.96788 14 6.99177 14ZM6.97532 12.5029C7.32628 12.1191 7.62789 11.6776 7.88014 11.1786C8.13239 10.6796 8.34626 10.0791 8.52174 9.3772H5.47826C5.62084 10.0353 5.81825 10.622 6.07051 11.1375C6.32276 11.653 6.62436 12.1081 6.97532 12.5029ZM5.62632 12.3055C5.34117 11.9107 5.10811 11.472 4.92714 10.9894C4.74618 10.5069 4.58989 9.96945 4.45828 9.3772H2.0564C2.45123 10.1449 2.91735 10.7454 3.45476 11.1786C3.99217 11.6118 4.71602 11.9875 5.62632 12.3055ZM8.34078 12.2891C9.1085 12.0478 9.80219 11.6776 10.4219 11.1786C11.0415 10.6796 11.5378 10.0791 11.9107 9.3772H9.54172C9.39914 9.95848 9.23463 10.4904 9.04818 10.973C8.86173 11.4555 8.62593 11.8942 8.34078 12.2891ZM1.74383 8.43948H4.27732C4.24442 8.14336 4.22522 7.88014 4.21974 7.64982C4.21426 7.41951 4.21152 7.19467 4.21152 6.97532C4.21152 6.70114 4.217 6.46259 4.22797 6.25969C4.23893 6.0568 4.26087 5.82374 4.29377 5.56052H1.74383C1.66706 5.82374 1.61496 6.05405 1.58754 6.25147C1.56013 6.44888 1.54642 6.69017 1.54642 6.97532C1.54642 7.24951 1.56013 7.49628 1.58754 7.71563C1.61496 7.93498 1.66706 8.17626 1.74383 8.43948ZM5.2973 8.43948H8.7027C8.73561 8.09949 8.7548 7.8253 8.76028 7.61692C8.76577 7.40854 8.76851 7.19467 8.76851 6.97532C8.76851 6.75597 8.76577 6.55033 8.76028 6.3584C8.7548 6.16647 8.73561 5.90051 8.7027 5.56052H5.2973C5.25343 5.90051 5.22601 6.16647 5.21504 6.3584C5.20407 6.55033 5.19859 6.75597 5.19859 6.97532C5.19859 7.19467 5.20407 7.40854 5.21504 7.61692C5.22601 7.8253 5.25343 8.09949 5.2973 8.43948ZM9.68978 8.43948H12.2233C12.2891 8.17626 12.3384 7.93498 12.3713 7.71563C12.4042 7.49628 12.4207 7.24951 12.4207 6.97532C12.4207 6.69017 12.4042 6.44888 12.3713 6.25147C12.3384 6.05405 12.2891 5.82374 12.2233 5.56052H9.70623C9.7172 5.95535 9.72816 6.24598 9.73913 6.43243C9.7501 6.61888 9.75558 6.79984 9.75558 6.97532C9.75558 7.20564 9.74736 7.42499 9.7309 7.63337C9.71445 7.84175 9.70074 8.11046 9.68978 8.43948ZM9.52526 4.60635H11.9107C11.5597 3.87152 11.0744 3.2546 10.4548 2.75558C9.8351 2.25656 9.12495 1.90834 8.32432 1.71093C8.60948 2.10576 8.84528 2.53623 9.03173 3.00235C9.21817 3.46847 9.38269 4.00313 9.52526 4.60635ZM5.47826 4.60635H8.53819C8.42852 4.047 8.2311 3.49589 7.94595 2.953C7.66079 2.41011 7.33725 1.94125 6.97532 1.54642C6.65727 1.83157 6.38034 2.20995 6.14454 2.68155C5.90873 3.15315 5.68664 3.79475 5.47826 4.60635ZM2.0564 4.60635H4.47474C4.59538 4.03604 4.7407 3.52056 4.91069 3.05993C5.08069 2.59929 5.31375 2.15511 5.60987 1.72738C4.79828 1.92479 4.09362 2.26479 3.49589 2.74736C2.89816 3.22993 2.41833 3.84959 2.0564 4.60635Z" fill="white"/>
</svg>
