<svg width="20" height="22" viewBox="0 0 20 22" fill="none" xmlns="http://www.w3.org/2000/svg">
<g clip-path="url(#clip0_1_14)">
<path d="M16 7C16 5.4087 15.3679 3.88258 14.2426 2.75736C13.1174 1.63214 11.5913 1 10 1C8.4087 1 6.88258 1.63214 5.75736 2.75736C4.63214 3.88258 4 5.4087 4 7C4 14 1 16 1 16H19C19 16 16 14 16 7Z" stroke="white" stroke-width="2" stroke-linecap="round" stroke-linejoin="round"/>
<path d="M11.73 20C11.5542 20.3031 11.3019 20.5547 10.9982 20.7295C10.6946 20.9044 10.3504 20.9965 10 20.9965C9.64964 20.9965 9.30541 20.9044 9.00179 20.7295C8.69818 20.5547 8.44583 20.3031 8.27002 20" stroke="white" stroke-width="2" stroke-linecap="round" stroke-linejoin="round"/>
<g clip-path="url(#clip1_1_14)">
<path d="M16 7.5C17.3807 7.5 18.5 6.38071 18.5 5C18.5 3.61929 17.3807 2.5 16 2.5C14.6193 2.5 13.5 3.61929 13.5 5C13.5 6.38071 14.6193 7.5 16 7.5Z" fill="white" stroke="#156BA8"/>
</g>
</g>
<defs>
<clipPath id="clip0_1_14">
<rect width="20" height="22" fill="white"/>
</clipPath>
<clipPath id="clip1_1_14">
<rect width="6" height="6" fill="white" transform="translate(13 2)"/>
</clipPath>
</defs>
</svg>
