<svg width="50" height="62" viewBox="0 0 50 62" fill="none" xmlns="http://www.w3.org/2000/svg">
<g filter="url(#filter0_d_1_216)">
<rect x="4" y="0.727295" width="41.3545" height="52.3013" rx="4" fill="white"/>
</g>
<path fill-rule="evenodd" clip-rule="evenodd" d="M23.6182 37.9246C23.087 37.9246 22.7438 37.9715 22.5406 38.0181V44.9063C22.7442 44.9533 23.0722 44.9533 23.3687 44.9533C25.5235 44.9684 26.9297 43.7822 26.9297 41.2672C26.9448 39.08 25.6643 37.9246 23.6182 37.9246Z" fill="#156BA8"/>
<path fill-rule="evenodd" clip-rule="evenodd" d="M14.4174 37.8936C13.9338 37.8936 13.6058 37.9399 13.4335 37.9865V41.0954C13.6367 41.142 13.8869 41.1581 14.229 41.1581C15.4953 41.1581 16.2758 40.5172 16.2758 39.4397C16.2761 38.4714 15.604 37.8936 14.4174 37.8936Z" fill="#156BA8"/>
<path d="M40.3127 15.2076C40.3102 15.0047 40.2457 14.8043 40.1064 14.6455L31.5721 4.89763C31.5703 4.89485 31.5672 4.89392 31.5653 4.89145C31.5144 4.83462 31.456 4.78799 31.3933 4.74661C31.3745 4.73456 31.355 4.72375 31.3355 4.71263C31.2812 4.68329 31.2244 4.65889 31.1644 4.64098C31.149 4.63635 31.1339 4.62986 31.1178 4.62554C31.0536 4.6101 30.9865 4.60083 30.9195 4.60083H9.94603C8.98896 4.60083 8.21033 5.37974 8.21033 6.33654V47.1252C8.21033 48.0826 8.98893 48.8609 9.94603 48.8609H38.5848C39.5419 48.8609 40.3209 48.0826 40.3209 47.1252V15.3048C40.3206 15.2721 40.3156 15.2403 40.3122 15.2076L40.3127 15.2076ZM17.6654 41.8761C16.8534 42.6415 15.6508 42.9855 14.2446 42.9855C13.9326 42.9855 13.6507 42.9694 13.4329 42.9389V46.7027H11.0746V36.3152C11.8081 36.1908 12.8396 36.0966 14.2924 36.0966C15.7603 36.0966 16.8071 36.3779 17.5096 36.94C18.1817 37.4712 18.6332 38.3459 18.6332 39.3765C18.6332 40.4077 18.2904 41.2823 17.6653 41.8756L17.6654 41.8761ZM27.709 45.4535C26.6014 46.3748 24.9145 46.8122 22.8533 46.8122C21.6192 46.8122 20.7448 46.734 20.1502 46.6562V36.3153C21.0252 36.1754 22.1657 36.0966 23.3684 36.0966C25.3664 36.0966 26.6632 36.4561 27.679 37.2212C28.7726 38.0337 29.4601 39.33 29.4601 41.1886C29.4592 43.2038 28.725 44.594 27.709 45.4532V45.4535ZM37.4576 38.1277H33.4114V40.533H37.1914V42.4704H33.4114V46.7028H31.0225V36.1761H37.4576V38.1277ZM9.9463 34.0719V6.3368H30.0517V15.2173C30.0517 15.6964 30.4399 16.0852 30.9195 16.0852H38.5851L38.586 34.0717L9.9463 34.0719Z" fill="#156BA8"/>
<path d="M33.1701 23.2547C33.1195 23.25 31.8965 23.1382 30.0192 23.1382C29.4312 23.1382 28.8388 23.15 28.2539 23.1719C24.5468 20.3898 21.5105 17.6059 19.8849 16.0455C19.9145 15.8738 19.9349 15.7379 19.9442 15.6335C20.1588 13.3703 19.9204 11.8425 19.2382 11.0922C18.7916 10.6021 18.1359 10.439 17.4518 10.6259C17.0271 10.7371 16.2408 11.1491 15.9888 11.9879C15.7111 12.9151 16.1577 14.0399 17.3316 15.3448C17.3501 15.3645 17.7485 15.7818 18.4722 16.4891C18.0018 18.7319 16.7705 23.5722 16.1731 25.8962C14.7697 26.6461 13.6005 27.5491 12.6956 28.5853L12.6363 28.6533L12.598 28.7345C12.5047 28.9303 12.059 29.947 12.3935 30.7636C12.5464 31.1349 12.8327 31.406 13.2216 31.5484L13.3256 31.5765C13.3256 31.5765 13.4195 31.5966 13.5851 31.5966C14.309 31.5966 16.096 31.2164 17.0547 27.6838L17.2869 26.7888C20.6329 25.1625 24.8154 24.638 27.8468 24.4916C29.4062 25.6482 30.9578 26.7103 32.4612 27.6511L32.5103 27.6795C32.5832 27.7169 33.2426 28.0424 34.0147 28.043C35.1182 28.043 35.9243 27.366 36.2242 26.186L36.2393 26.105C36.3233 25.4308 36.1538 24.8227 35.7495 24.3477C34.898 23.3464 33.3124 23.2593 33.1697 23.2544L33.1701 23.2547ZM13.6119 30.2945C13.6051 30.2865 13.602 30.2791 13.5986 30.2704C13.5267 30.0971 13.6128 29.6768 13.7401 29.3689C14.2858 28.7586 14.9409 28.1984 15.6969 27.694C14.9606 30.0774 13.8901 30.2833 13.6119 30.2945ZM18.2863 14.4602C17.1559 13.2017 17.1726 12.5778 17.2335 12.3678C17.3335 12.0166 17.7838 11.8838 17.7878 11.8826C18.0145 11.8211 18.1523 11.8332 18.2749 11.9678C18.5522 12.2723 18.7903 13.1917 18.6965 14.8781C18.4293 14.6097 18.2863 14.4602 18.2863 14.4602ZM17.7023 25.1774L17.7217 25.103L17.7192 25.1039C18.2854 22.8864 19.1016 19.6398 19.5711 17.5545L19.5881 17.5706L19.5896 17.5607C21.1085 18.991 23.4372 21.0828 26.2255 23.2582L26.1943 23.2598L26.2403 23.2944C23.6136 23.5164 20.4764 24.0341 17.7021 25.1774L17.7023 25.1774ZM34.9526 25.9048C34.7525 26.6398 34.3676 26.7402 34.015 26.7402C33.6057 26.7402 33.2117 26.57 33.1218 26.5286C32.098 25.8871 31.0507 25.1876 29.9938 24.4395H30.0191C31.8311 24.4395 33.0378 24.5495 33.0853 24.5529C33.388 24.5643 34.3457 24.7058 34.7583 25.191C34.9202 25.3809 34.9822 25.6086 34.9526 25.9048Z" fill="#156BA8"/>
<defs>
<filter id="filter0_d_1_216" x="0" y="0.727295" width="49.3545" height="60.3013" filterUnits="userSpaceOnUse" color-interpolation-filters="sRGB">
<feFlood flood-opacity="0" result="BackgroundImageFix"/>
<feColorMatrix in="SourceAlpha" type="matrix" values="0 0 0 0 0 0 0 0 0 0 0 0 0 0 0 0 0 0 127 0" result="hardAlpha"/>
<feOffset dy="4"/>
<feGaussianBlur stdDeviation="2"/>
<feComposite in2="hardAlpha" operator="out"/>
<feColorMatrix type="matrix" values="0 0 0 0 0 0 0 0 0 0 0 0 0 0 0 0 0 0 0.25 0"/>
<feBlend mode="normal" in2="BackgroundImageFix" result="effect1_dropShadow_1_216"/>
<feBlend mode="normal" in="SourceGraphic" in2="effect1_dropShadow_1_216" result="shape"/>
</filter>
</defs>
</svg>
