<svg width="24" height="24" viewBox="0 0 24 24" fill="none" xmlns="http://www.w3.org/2000/svg">
<ellipse cx="11.8884" cy="12" rx="11.8884" ry="12" fill="#156BA8"/>
<path d="M17.8325 14.2356V15.8916C17.8331 16.0453 17.8018 16.1974 17.7407 16.3383C17.6796 16.4792 17.5899 16.6056 17.4774 16.7095C17.365 16.8134 17.2322 16.8926 17.0877 16.9418C16.9431 16.9911 16.7899 17.0094 16.638 16.9955C14.9519 16.811 13.3323 16.2306 11.9093 15.3009C10.5854 14.4535 9.46293 13.3227 8.62167 11.9891C7.69565 10.549 7.11936 8.90954 6.93951 7.20337C6.92581 7.05073 6.94382 6.89689 6.99238 6.75164C7.04094 6.6064 7.11899 6.47293 7.22156 6.35974C7.32414 6.24654 7.44898 6.1561 7.58815 6.09418C7.72732 6.03225 7.87776 6.0002 8.0299 6.00005H9.6737C9.93962 5.99742 10.1974 6.09228 10.399 6.26695C10.6007 6.44163 10.7324 6.6842 10.7696 6.94946C10.839 7.4794 10.9676 7.99973 11.1531 8.50053C11.2269 8.6981 11.2428 8.91281 11.1991 9.11923C11.1554 9.32566 11.0539 9.51513 10.9066 9.66521L10.2107 10.3662C10.9907 11.7481 12.1265 12.8923 13.4983 13.6781L14.1942 12.9771C14.3431 12.8287 14.5312 12.7264 14.7361 12.6824C14.9411 12.6384 15.1542 12.6544 15.3503 12.7287C15.8474 12.9156 16.364 13.0452 16.89 13.1151C17.1562 13.1529 17.3993 13.288 17.573 13.4946C17.7468 13.7012 17.8391 13.9649 17.8325 14.2356Z" stroke="#E0E7FB" stroke-linecap="round" stroke-linejoin="round"/>
</svg>
