<svg width="32" height="33" viewBox="0 0 32 33" fill="none" xmlns="http://www.w3.org/2000/svg">
<path d="M15.9954 20.197C18.254 20.197 20.085 18.3553 20.085 16.0834C20.085 13.8115 18.254 11.9697 15.9954 11.9697C13.7368 11.9697 11.9058 13.8115 11.9058 16.0834C11.9058 18.3553 13.7368 20.197 15.9954 20.197Z" stroke="white" stroke-width="2" stroke-linecap="round" stroke-linejoin="round"/>
<path d="M26.0831 20.197C25.9016 20.6105 25.8475 21.0693 25.9277 21.5141C26.0079 21.959 26.2187 22.3694 26.5329 22.6926L26.6147 22.7748C26.8682 23.0295 27.0693 23.332 27.2065 23.6649C27.3437 23.9979 27.4144 24.3547 27.4144 24.7151C27.4144 25.0755 27.3437 25.4324 27.2065 25.7653C27.0693 26.0982 26.8682 26.4007 26.6147 26.6554C26.3615 26.9104 26.0608 27.1126 25.7299 27.2506C25.3989 27.3887 25.0441 27.4597 24.6858 27.4597C24.3275 27.4597 23.9727 27.3887 23.6417 27.2506C23.3108 27.1126 23.0101 26.9104 22.7568 26.6554L22.6751 26.5731C22.3538 26.257 21.9457 26.0449 21.5035 25.9643C21.0613 25.8836 20.6052 25.9381 20.194 26.1206C19.7908 26.2944 19.4469 26.583 19.2047 26.9509C18.9625 27.3188 18.8326 27.7499 18.8308 28.1911V28.4242C18.8308 29.1516 18.5436 29.8491 18.0323 30.3634C17.5209 30.8777 16.8275 31.1667 16.1044 31.1667C15.3813 31.1667 14.6878 30.8777 14.1765 30.3634C13.6652 29.8491 13.378 29.1516 13.378 28.4242V28.3008C13.3674 27.847 13.2213 27.4068 12.9588 27.0375C12.6962 26.6683 12.3293 26.387 11.9057 26.2303C11.4945 26.0478 11.0384 25.9933 10.5962 26.074C10.154 26.1546 9.74593 26.3667 9.42464 26.6828L9.34285 26.7651C9.08964 27.0201 8.78895 27.2223 8.45797 27.3603C8.12698 27.4984 7.7722 27.5694 7.41391 27.5694C7.05561 27.5694 6.70083 27.4984 6.36985 27.3603C6.03887 27.2223 5.73818 27.0201 5.48496 26.7651C5.23147 26.5104 5.03037 26.2079 4.89317 25.875C4.75596 25.5421 4.68534 25.1852 4.68534 24.8248C4.68534 24.4644 4.75596 24.1076 4.89317 23.7746C5.03037 23.4417 5.23147 23.1392 5.48496 22.8845L5.56676 22.8023C5.88103 22.4791 6.09185 22.0687 6.17203 21.6238C6.25221 21.179 6.19808 20.7202 6.01662 20.3067C5.84381 19.9011 5.55688 19.5552 5.19115 19.3116C4.82541 19.068 4.39683 18.9372 3.95817 18.9355H3.72642C3.00333 18.9355 2.30985 18.6465 1.79855 18.1322C1.28725 17.6179 1 16.9204 1 16.193C1 15.4657 1.28725 14.7681 1.79855 14.2538C2.30985 13.7395 3.00333 13.4506 3.72642 13.4506H3.84911C4.30033 13.44 4.73793 13.2931 5.10504 13.029C5.47214 12.7649 5.75177 12.3958 5.90756 11.9697C6.08902 11.5561 6.14315 11.0973 6.06297 10.6525C5.98279 10.2077 5.77197 9.79726 5.4577 9.47409L5.37591 9.39182C5.12241 9.13712 4.92132 8.83466 4.78411 8.50174C4.64691 8.16881 4.57628 7.81195 4.57628 7.45155C4.57628 7.09116 4.64691 6.73429 4.78411 6.40137C4.92132 6.06844 5.12241 5.76599 5.37591 5.51129C5.62912 5.25631 5.92981 5.05403 6.26079 4.91602C6.59178 4.77801 6.94656 4.70697 7.30485 4.70697C7.66315 4.70697 8.01793 4.77801 8.34891 4.91602C8.67989 5.05403 8.98058 5.25631 9.2338 5.51129L9.31559 5.59356C9.63687 5.90968 10.0449 6.12173 10.4871 6.20238C10.9294 6.28304 11.3855 6.22859 11.7966 6.04606H11.9057C12.3089 5.87224 12.6528 5.58363 12.895 5.21574C13.1372 4.84786 13.2672 4.41677 13.2689 3.97553V3.74242C13.2689 3.01509 13.5561 2.31754 14.0675 1.80324C14.5788 1.28893 15.2722 1 15.9953 1C16.7184 1 17.4119 1.28893 17.9232 1.80324C18.4345 2.31754 18.7217 3.01509 18.7217 3.74242V3.86583C18.7235 4.30707 18.8535 4.73816 19.0957 5.10605C19.3379 5.47393 19.6818 5.76254 20.085 5.93636C20.4961 6.11889 20.9522 6.17334 21.3944 6.09269C21.8367 6.01203 22.2447 5.79998 22.566 5.48386L22.6478 5.40159C22.901 5.14661 23.2017 4.94433 23.5327 4.80632C23.8637 4.66831 24.2184 4.59727 24.5767 4.59727C24.935 4.59727 25.2898 4.66831 25.6208 4.80632C25.9518 4.94433 26.2525 5.14661 26.5057 5.40159C26.7592 5.65629 26.9603 5.95875 27.0975 6.29167C27.2347 6.6246 27.3053 6.98146 27.3053 7.34186C27.3053 7.70225 27.2347 8.05912 27.0975 8.39204C26.9603 8.72497 26.7592 9.02742 26.5057 9.28212L26.4239 9.36439C26.1096 9.68756 25.8988 10.098 25.8186 10.5428C25.7384 10.9876 25.7926 11.4464 25.974 11.86V11.9697C26.1468 12.3753 26.4338 12.7211 26.7995 12.9648C27.1652 13.2084 27.5938 13.3391 28.0325 13.3409H28.2642C28.9873 13.3409 29.6808 13.6298 30.1921 14.1441C30.7034 14.6585 30.9906 15.356 30.9906 16.0833C30.9906 16.8107 30.7034 17.5082 30.1921 18.0225C29.6808 18.5368 28.9873 18.8258 28.2642 18.8258H28.1415C27.7029 18.8275 27.2743 18.9583 26.9086 19.2019C26.5428 19.4455 26.2559 19.7914 26.0831 20.197V20.197Z" stroke="white" stroke-width="2" stroke-linecap="round" stroke-linejoin="round"/>
</svg>
