<svg width="23" height="23" viewBox="0 0 23 23" fill="none" xmlns="http://www.w3.org/2000/svg">
<path d="M11.0245 13.8333C12.5345 13.8333 13.7585 12.6021 13.7585 11.0833C13.7585 9.56456 12.5345 8.33334 11.0245 8.33334C9.51462 8.33334 8.29059 9.56456 8.29059 11.0833C8.29059 12.6021 9.51462 13.8333 11.0245 13.8333Z" stroke="#656563" stroke-width="2" stroke-linecap="round" stroke-linejoin="round"/>
<path d="M17.7682 13.8333C17.6469 14.1098 17.6108 14.4165 17.6644 14.7139C17.718 15.0112 17.8589 15.2856 18.069 15.5017L18.1237 15.5567C18.2931 15.7269 18.4276 15.9291 18.5193 16.1517C18.611 16.3743 18.6582 16.6128 18.6582 16.8537C18.6582 17.0947 18.611 17.3332 18.5193 17.5558C18.4276 17.7784 18.2931 17.9806 18.1237 18.1508C17.9544 18.3213 17.7534 18.4565 17.5321 18.5488C17.3108 18.641 17.0737 18.6885 16.8341 18.6885C16.5946 18.6885 16.3575 18.641 16.1362 18.5488C15.9149 18.4565 15.7139 18.3213 15.5446 18.1508L15.49 18.0958C15.2752 17.8845 15.0024 17.7427 14.7068 17.6888C14.4111 17.6349 14.1062 17.6713 13.8314 17.7933C13.5618 17.9095 13.3319 18.1025 13.17 18.3484C13.0081 18.5943 12.9212 18.8825 12.92 19.1775V19.3333C12.92 19.8196 12.728 20.2859 12.3862 20.6297C12.0444 20.9735 11.5808 21.1667 11.0974 21.1667C10.614 21.1667 10.1504 20.9735 9.8086 20.6297C9.46679 20.2859 9.27477 19.8196 9.27477 19.3333V19.2508C9.26771 18.9474 9.17007 18.6532 8.99455 18.4063C8.81902 18.1595 8.57372 17.9714 8.29054 17.8667C8.01567 17.7446 7.71077 17.7082 7.41514 17.7622C7.11951 17.8161 6.84672 17.9578 6.63194 18.1692L6.57727 18.2242C6.40799 18.3946 6.20698 18.5298 5.98571 18.6221C5.76445 18.7144 5.52727 18.7619 5.28775 18.7619C5.04823 18.7619 4.81105 18.7144 4.58979 18.6221C4.36853 18.5298 4.16751 18.3946 3.99824 18.2242C3.82877 18.0539 3.69434 17.8517 3.60261 17.6291C3.51089 17.4066 3.46368 17.168 3.46368 16.9271C3.46368 16.6862 3.51089 16.4476 3.60261 16.225C3.69434 16.0025 3.82877 15.8003 3.99824 15.63L4.05291 15.575C4.26301 15.359 4.40394 15.0846 4.45754 14.7872C4.51115 14.4898 4.47496 14.1831 4.35365 13.9067C4.23813 13.6355 4.04631 13.4043 3.80182 13.2414C3.55732 13.0786 3.27081 12.9912 2.97756 12.99H2.82264C2.33924 12.99 1.87565 12.7968 1.53384 12.453C1.19203 12.1092 1 11.6429 1 11.1567C1 10.6704 1.19203 10.2041 1.53384 9.8603C1.87565 9.51649 2.33924 9.32333 2.82264 9.32333H2.90465C3.2063 9.31624 3.49884 9.21802 3.74425 9.04147C3.98966 8.86491 4.17659 8.61817 4.28074 8.33333C4.40205 8.05685 4.43824 7.75016 4.38464 7.45279C4.33104 7.15543 4.1901 6.88104 3.98001 6.665L3.92533 6.61C3.75587 6.43973 3.62143 6.23754 3.52971 6.01497C3.43799 5.79241 3.39078 5.55384 3.39078 5.31292C3.39078 5.07199 3.43799 4.83342 3.52971 4.61086C3.62143 4.3883 3.75587 4.1861 3.92533 4.01583C4.0946 3.84538 4.29562 3.71015 4.51688 3.61789C4.73815 3.52563 4.97532 3.47814 5.21485 3.47814C5.45437 3.47814 5.69154 3.52563 5.91281 3.61789C6.13407 3.71015 6.33509 3.84538 6.50436 4.01583L6.55904 4.07083C6.77382 4.28216 7.04661 4.42392 7.34224 4.47784C7.63786 4.53175 7.94277 4.49536 8.21764 4.37333H8.29054C8.56008 4.25713 8.78996 4.06419 8.95188 3.81826C9.1138 3.57233 9.20069 3.28414 9.20186 2.98917V2.83333C9.20186 2.3471 9.39389 1.88079 9.7357 1.53697C10.0775 1.19315 10.5411 1 11.0245 1C11.5079 1 11.9715 1.19315 12.3133 1.53697C12.6551 1.88079 12.8471 2.3471 12.8471 2.83333V2.91583C12.8483 3.2108 12.9352 3.49899 13.0971 3.74493C13.259 3.99086 13.4889 4.1838 13.7585 4.3C14.0333 4.42202 14.3382 4.45842 14.6339 4.4045C14.9295 4.35059 15.2023 4.20883 15.417 3.9975L15.4717 3.9425C15.641 3.77204 15.842 3.63682 16.0633 3.54456C16.2845 3.4523 16.5217 3.40481 16.7612 3.40481C17.0008 3.40481 17.2379 3.4523 17.4592 3.54456C17.6805 3.63682 17.8815 3.77204 18.0508 3.9425C18.2202 4.11277 18.3547 4.31496 18.4464 4.53753C18.5381 4.76009 18.5853 4.99865 18.5853 5.23958C18.5853 5.48051 18.5381 5.71908 18.4464 5.94164C18.3547 6.1642 18.2202 6.3664 18.0508 6.53667L17.9961 6.59167C17.786 6.80771 17.6451 7.0821 17.5914 7.37946C17.5378 7.67682 17.574 7.98352 17.6953 8.26V8.33333C17.8109 8.60445 18.0027 8.83568 18.2472 8.99855C18.4917 9.16142 18.7782 9.24882 19.0714 9.25H19.2264C19.7098 9.25 20.1733 9.44315 20.5152 9.78697C20.857 10.1308 21.049 10.5971 21.049 11.0833C21.049 11.5696 20.857 12.0359 20.5152 12.3797C20.1733 12.7235 19.7098 12.9167 19.2264 12.9167H19.1443C18.8511 12.9178 18.5646 13.0052 18.3201 13.1681C18.0756 13.331 17.8838 13.5622 17.7682 13.8333V13.8333Z" stroke="#656563" stroke-width="2" stroke-linecap="round" stroke-linejoin="round"/>
</svg>
