<?xml version="1.0" encoding="UTF-8"?>
<svg width="700pt" height="700pt" version="1.1" viewBox="0 0 700 700" xmlns="http://www.w3.org/2000/svg">
 <g>
  <path d="m262.5 280c0 19.328-15.672 35-35 35s-35-15.672-35-35 15.672-35 35-35 35 15.672 35 35"/>
  <path d="m227.5 245c-4.6406 0-9.0938-1.8438-12.375-5.125s-5.125-7.7344-5.125-12.375v-17.5c0-6.2539 3.3359-12.031 8.75-15.156s12.086-3.125 17.5 0 8.75 8.9023 8.75 15.156v17.5c0 4.6406-1.8438 9.0938-5.125 12.375s-7.7344 5.125-12.375 5.125z"/>
  <path d="m182 271.25c-3.0664 0.019531-6.082-0.76172-8.75-2.2734l-15.75-8.75c-5.1289-3.2617-8.1992-8.9492-8.1094-15.023 0.089844-6.0781 3.3242-11.672 8.543-14.781 5.2227-3.1094 11.684-3.2891 17.066-0.47266l15.227 8.75c4.5273 2.5664 7.6758 7.0117 8.5938 12.137 0.92188 5.1211-0.48828 10.387-3.8398 14.363-3.3516 3.9805-8.3008 6.2617-13.504 6.2266z"/>
  <path d="m166.95 332.5c-5.2891 0.26172-10.41-1.8867-13.93-5.8438-3.5195-3.9531-5.0625-9.2891-4.1914-14.512 0.87109-5.2227 4.0586-9.7695 8.6719-12.371l15.227-8.75c5.3828-2.8164 11.844-2.6367 17.062 0.47266 5.2227 3.1094 8.457 8.7031 8.5469 14.781 0.085937 6.0742-2.9844 11.762-8.1094 15.023l-15.227 8.75c-2.4453 1.457-5.207 2.3008-8.0508 2.4492z"/>
  <path d="m227.5 367.5c-4.6406 0-9.0938-1.8438-12.375-5.125s-5.125-7.7344-5.125-12.375v-17.5c0-6.2539 3.3359-12.031 8.75-15.156s12.086-3.125 17.5 0 8.75 8.9023 8.75 15.156v17.5c0 4.6406-1.8438 9.0938-5.125 12.375s-7.7344 5.125-12.375 5.125z"/>
  <path d="m288.05 332.5c-3.0664 0.019531-6.082-0.76172-8.75-2.2734l-15.227-8.75c-5.1289-3.2617-8.1992-8.9492-8.1094-15.023 0.089844-6.0781 3.3242-11.672 8.543-14.781 5.2227-3.1094 11.684-3.2891 17.066-0.47266l15.227 8.75c4.5273 2.5664 7.6758 7.0117 8.5977 12.137 0.91797 5.1211-0.48828 10.387-3.8438 14.363-3.3516 3.9805-8.3008 6.2617-13.504 6.2266z"/>
  <path d="m273 271.25c-5.2031 0.035156-10.152-2.2461-13.508-6.2227-3.3516-3.9805-4.7578-9.2461-3.8398-14.367 0.91797-5.1211 4.0703-9.5703 8.5977-12.137l15.227-8.75c5.3828-2.8164 11.844-2.6367 17.062 0.47266 5.2227 3.1094 8.457 8.7031 8.5469 14.781 0.085937 6.0742-2.9844 11.762-8.1094 15.023l-15.227 8.75c-2.6484 1.5703-5.668 2.418-8.75 2.4492z"/>
  <path d="m595 140h-490c-4.6406 0-9.0938 1.8438-12.375 5.125s-5.125 7.7344-5.125 12.375v245c0 4.6406 1.8438 9.0938 5.125 12.375s7.7344 5.125 12.375 5.125h490c4.6406 0 9.0938-1.8438 12.375-5.125s5.125-7.7344 5.125-12.375v-245c0-4.6406-1.8438-9.0938-5.125-12.375s-7.7344-5.125-12.375-5.125zm-262.5 245h-210v-210h210zm210-39.898c-16.055 14.418-36.871 22.395-58.449 22.398-31.262 0-60.148-16.676-75.777-43.75-15.633-27.074-15.633-60.426 0-87.5 15.629-27.074 44.516-43.75 75.777-43.75 4.7852-0.042969 9.3789 1.8789 12.711 5.3125 3.332 3.4375 5.1133 8.0859 4.9258 12.867s-2.3242 9.2812-5.9141 12.445c-13.465 11.855-19.941 29.77-17.176 47.496 2.7656 17.727 14.391 32.812 30.828 40.004 6.8359 2.7969 14.137 4.2812 21.523 4.375 4.6094 0.15234 8.9727 2.1211 12.141 5.4766 3.168 3.3516 4.8828 7.8203 4.7695 12.434-0.10938 4.6094-2.0352 8.9922-5.3594 12.191z"/>
 </g>
</svg>
