<svg width="18" height="19" viewBox="0 0 18 19" fill="none" xmlns="http://www.w3.org/2000/svg">
<path d="M9.01982 19L6.34361 16.2497H2.65639V12.3448L0 9.53149L2.65639 6.71823V2.81326H6.34361L9.01982 0L11.6564 2.81326H15.3436V6.71823L18 9.53149L15.3436 12.3448V16.2497H11.6564L9.01982 19ZM9.01982 17.2365L11.1608 14.9901H14.1542V11.8199L16.315 9.53149L14.1542 7.24309V4.07293H11.1608L9.01982 1.78453L6.83921 4.07293H3.84581V7.24309L1.68502 9.53149L3.84581 11.8199V14.9901H6.81938L9.01982 17.2365ZM8.98018 14.9901C10.4471 14.9901 11.6762 14.4617 12.6674 13.405C13.6586 12.3483 14.1542 11.0501 14.1542 9.5105C14.1542 7.9709 13.6553 6.67274 12.6575 5.61602C11.6597 4.5593 10.4339 4.03094 8.98018 4.03094C8.62335 4.03094 8.27974 4.06943 7.94934 4.14641C7.61894 4.22339 7.26211 4.35285 6.87885 4.53481C7.79075 4.98269 8.52423 5.65451 9.0793 6.55028C9.63436 7.44604 9.91189 8.43278 9.91189 9.5105C9.91189 10.5882 9.63436 11.575 9.0793 12.4707C8.52423 13.3665 7.79075 14.0453 6.87885 14.5072C7.19603 14.6611 7.52974 14.7801 7.87996 14.8641C8.23018 14.9481 8.59692 14.9901 8.98018 14.9901Z" fill="#D9EAFF"/>
</svg>
