<svg width="24" height="23" viewBox="0 0 24 23" fill="none" xmlns="http://www.w3.org/2000/svg">
<path d="M18.7833 13.8333C18.6613 14.1098 18.6249 14.4165 18.6788 14.7139C18.7327 15.0112 18.8745 15.2856 19.0858 15.5017L19.1408 15.5567C19.3112 15.7269 19.4465 15.9291 19.5387 16.1517C19.631 16.3743 19.6785 16.6128 19.6785 16.8537C19.6785 17.0947 19.631 17.3332 19.5387 17.5558C19.4465 17.7784 19.3112 17.9806 19.1408 18.1508C18.9705 18.3213 18.7683 18.4565 18.5458 18.5488C18.3232 18.641 18.0846 18.6885 17.8437 18.6885C17.6028 18.6885 17.3642 18.641 17.1417 18.5488C16.9191 18.4565 16.7169 18.3213 16.5466 18.1508L16.4916 18.0958C16.2756 17.8845 16.0012 17.7427 15.7038 17.6888C15.4065 17.6349 15.0998 17.6713 14.8233 17.7933C14.5522 17.9095 14.3209 18.1025 14.1581 18.3484C13.9952 18.5943 13.9078 18.8825 13.9066 19.1775V19.3333C13.9066 19.8196 13.7135 20.2859 13.3697 20.6297C13.0258 20.9735 12.5595 21.1667 12.0733 21.1667C11.5871 21.1667 11.1207 20.9735 10.7769 20.6297C10.4331 20.2859 10.24 19.8196 10.24 19.3333V19.2508C10.2329 18.9474 10.1347 18.6532 9.95809 18.4063C9.78154 18.1595 9.5348 17.9714 9.24996 17.8667C8.97348 17.7446 8.66678 17.7082 8.36942 17.7622C8.07206 17.8161 7.79766 17.9578 7.58163 18.1692L7.52663 18.2242C7.35636 18.3946 7.15416 18.5298 6.9316 18.6221C6.70904 18.7144 6.47047 18.7619 6.22954 18.7619C5.98861 18.7619 5.75005 18.7144 5.52749 18.6221C5.30492 18.5298 5.10273 18.3946 4.93246 18.2242C4.762 18.0539 4.62678 17.8517 4.53452 17.6291C4.44226 17.4066 4.39477 17.168 4.39477 16.9271C4.39477 16.6862 4.44226 16.4476 4.53452 16.225C4.62678 16.0025 4.762 15.8003 4.93246 15.63L4.98746 15.575C5.19878 15.359 5.34055 15.0846 5.39446 14.7872C5.44838 14.4898 5.41198 14.1831 5.28996 13.9067C5.17376 13.6355 4.98082 13.4043 4.73489 13.2414C4.48895 13.0786 4.20076 12.9912 3.90579 12.99H3.74996C3.26373 12.99 2.79741 12.7968 2.4536 12.453C2.10978 12.1092 1.91663 11.6429 1.91663 11.1567C1.91663 10.6704 2.10978 10.2041 2.4536 9.8603C2.79741 9.51649 3.26373 9.32333 3.74996 9.32333H3.83246C4.13587 9.31624 4.43013 9.21802 4.67698 9.04147C4.92384 8.86491 5.11187 8.61817 5.21663 8.33333C5.33865 8.05685 5.37505 7.75016 5.32113 7.45279C5.26721 7.15543 5.12545 6.88104 4.91413 6.665L4.85913 6.61C4.68867 6.43973 4.55344 6.23754 4.46118 6.01497C4.36892 5.79241 4.32143 5.55384 4.32143 5.31292C4.32143 5.07199 4.36892 4.83342 4.46118 4.61086C4.55344 4.3883 4.68867 4.1861 4.85913 4.01583C5.02939 3.84538 5.23159 3.71015 5.45415 3.61789C5.67672 3.52563 5.91528 3.47814 6.15621 3.47814C6.39714 3.47814 6.6357 3.52563 6.85827 3.61789C7.08083 3.71015 7.28303 3.84538 7.45329 4.01583L7.50829 4.07083C7.72433 4.28216 7.99872 4.42392 8.29609 4.47784C8.59345 4.53175 8.90014 4.49536 9.17663 4.37333H9.24996C9.52108 4.25713 9.75231 4.06419 9.91518 3.81826C10.078 3.57233 10.1654 3.28414 10.1666 2.98917V2.83333C10.1666 2.3471 10.3598 1.88079 10.7036 1.53697C11.0474 1.19315 11.5137 1 12 1C12.4862 1 12.9525 1.19315 13.2963 1.53697C13.6401 1.88079 13.8333 2.3471 13.8333 2.83333V2.91583C13.8345 3.2108 13.9219 3.49899 14.0847 3.74493C14.2476 3.99086 14.4788 4.1838 14.75 4.3C15.0264 4.42202 15.3331 4.45842 15.6305 4.4045C15.9279 4.35059 16.2023 4.20883 16.4183 3.9975L16.4733 3.9425C16.6436 3.77204 16.8458 3.63682 17.0683 3.54456C17.2909 3.4523 17.5294 3.40481 17.7704 3.40481C18.0113 3.40481 18.2499 3.4523 18.4724 3.54456C18.695 3.63682 18.8972 3.77204 19.0675 3.9425C19.2379 4.11277 19.3731 4.31496 19.4654 4.53753C19.5577 4.76009 19.6052 4.99865 19.6052 5.23958C19.6052 5.48051 19.5577 5.71908 19.4654 5.94164C19.3731 6.1642 19.2379 6.3664 19.0675 6.53667L19.0125 6.59167C18.8011 6.80771 18.6594 7.0821 18.6055 7.37946C18.5515 7.67682 18.5879 7.98352 18.71 8.26V8.33333C18.8262 8.60445 19.0191 8.83568 19.265 8.99855C19.511 9.16142 19.7992 9.24882 20.0941 9.25H20.25C20.7362 9.25 21.2025 9.44315 21.5463 9.78697C21.8901 10.1308 22.0833 10.5971 22.0833 11.0833C22.0833 11.5696 21.8901 12.0359 21.5463 12.3797C21.2025 12.7235 20.7362 12.9167 20.25 12.9167H20.1675C19.8725 12.9178 19.5843 13.0052 19.3384 13.1681C19.0924 13.331 18.8995 13.5622 18.7833 13.8333V13.8333Z" stroke="white" stroke-width="2" stroke-linecap="round" stroke-linejoin="round"/>
</svg>
