<svg width="24" height="24" viewBox="0 0 24 24" fill="none" xmlns="http://www.w3.org/2000/svg">
<circle cx="12" cy="12" r="12" fill="#156BA8"/>
<path d="M11.9918 19C11.0157 19 10.1026 18.819 9.25264 18.4571C8.40266 18.0952 7.66236 17.5962 7.03173 16.96C6.4011 16.3239 5.90482 15.5781 5.54289 14.7227C5.18096 13.8672 5 12.9514 5 11.9753C5 10.9992 5.18096 10.0862 5.54289 9.23619C5.90482 8.38621 6.4011 7.64865 7.03173 7.0235C7.66236 6.39836 8.40266 5.90482 9.25264 5.54289C10.1026 5.18096 11.0157 5 11.9918 5C12.9679 5 13.8809 5.18096 14.7309 5.54289C15.5809 5.90482 16.3212 6.39836 16.9518 7.0235C17.5825 7.64865 18.0815 8.38621 18.4489 9.23619C18.8163 10.0862 19 10.9992 19 11.9753C19 12.9514 18.8163 13.8672 18.4489 14.7227C18.0815 15.5781 17.5825 16.3239 16.9518 16.96C16.3212 17.5962 15.5809 18.0952 14.7309 18.4571C13.8809 18.819 12.9679 19 11.9918 19ZM11.9753 17.5029C12.3263 17.1191 12.6279 16.6776 12.8801 16.1786C13.1324 15.6796 13.3463 15.0791 13.5217 14.3772H10.4783C10.6208 15.0353 10.8183 15.622 11.0705 16.1375C11.3228 16.653 11.6244 17.1081 11.9753 17.5029ZM10.6263 17.3055C10.3412 16.9107 10.1081 16.472 9.92714 15.9894C9.74618 15.5069 9.58989 14.9694 9.45828 14.3772H7.0564C7.45123 15.1449 7.91735 15.7454 8.45476 16.1786C8.99217 16.6118 9.71602 16.9875 10.6263 17.3055ZM13.3408 17.2891C14.1085 17.0478 14.8022 16.6776 15.4219 16.1786C16.0415 15.6796 16.5378 15.0791 16.9107 14.3772H14.5417C14.3991 14.9585 14.2346 15.4904 14.0482 15.973C13.8617 16.4555 13.6259 16.8942 13.3408 17.2891ZM6.74383 13.4395H9.27732C9.24442 13.1434 9.22522 12.8801 9.21974 12.6498C9.21426 12.4195 9.21152 12.1947 9.21152 11.9753C9.21152 11.7011 9.217 11.4626 9.22797 11.2597C9.23893 11.0568 9.26087 10.8237 9.29377 10.5605H6.74383C6.66706 10.8237 6.61496 11.0541 6.58754 11.2515C6.56013 11.4489 6.54642 11.6902 6.54642 11.9753C6.54642 12.2495 6.56013 12.4963 6.58754 12.7156C6.61496 12.935 6.66706 13.1763 6.74383 13.4395ZM10.2973 13.4395H13.7027C13.7356 13.0995 13.7548 12.8253 13.7603 12.6169C13.7658 12.4085 13.7685 12.1947 13.7685 11.9753C13.7685 11.756 13.7658 11.5503 13.7603 11.3584C13.7548 11.1665 13.7356 10.9005 13.7027 10.5605H10.2973C10.2534 10.9005 10.226 11.1665 10.215 11.3584C10.2041 11.5503 10.1986 11.756 10.1986 11.9753C10.1986 12.1947 10.2041 12.4085 10.215 12.6169C10.226 12.8253 10.2534 13.0995 10.2973 13.4395ZM14.6898 13.4395H17.2233C17.2891 13.1763 17.3384 12.935 17.3713 12.7156C17.4042 12.4963 17.4207 12.2495 17.4207 11.9753C17.4207 11.6902 17.4042 11.4489 17.3713 11.2515C17.3384 11.0541 17.2891 10.8237 17.2233 10.5605H14.7062C14.7172 10.9553 14.7282 11.246 14.7391 11.4324C14.7501 11.6189 14.7556 11.7998 14.7556 11.9753C14.7556 12.2056 14.7474 12.425 14.7309 12.6334C14.7145 12.8418 14.7007 13.1105 14.6898 13.4395ZM14.5253 9.60635H16.9107C16.5597 8.87152 16.0744 8.2546 15.4548 7.75558C14.8351 7.25656 14.125 6.90834 13.3243 6.71093C13.6095 7.10576 13.8453 7.53623 14.0317 8.00235C14.2182 8.46847 14.3827 9.00313 14.5253 9.60635ZM10.4783 9.60635H13.5382C13.4285 9.047 13.2311 8.49589 12.9459 7.953C12.6608 7.41011 12.3373 6.94125 11.9753 6.54642C11.6573 6.83157 11.3803 7.20995 11.1445 7.68155C10.9087 8.15315 10.6866 8.79475 10.4783 9.60635ZM7.0564 9.60635H9.47474C9.59538 9.03604 9.7407 8.52056 9.91069 8.05993C10.0807 7.59929 10.3137 7.15511 10.6099 6.72738C9.79828 6.92479 9.09362 7.26479 8.49589 7.74736C7.89816 8.22993 7.41833 8.84959 7.0564 9.60635Z" fill="white"/>
</svg>
