<svg width="24" height="24" viewBox="0 0 24 24" fill="none" xmlns="http://www.w3.org/2000/svg">
<ellipse cx="11.8884" cy="12" rx="11.8884" ry="12" fill="#156BA8"/>
<path d="M15.6529 13.5168V14.4652C15.6532 14.5533 15.6353 14.6404 15.6003 14.7211C15.5653 14.8017 15.5139 14.8742 15.4495 14.9337C15.3851 14.9932 15.3091 15.0385 15.2263 15.0667C15.1435 15.0949 15.0558 15.1054 14.9687 15.0975C14.0031 14.9918 13.0755 14.6594 12.2605 14.1269C11.5023 13.6416 10.8594 12.994 10.3776 12.2301C9.84723 11.4054 9.51718 10.4664 9.41417 9.48925C9.40633 9.40183 9.41664 9.31372 9.44445 9.23054C9.47226 9.14735 9.51697 9.07091 9.57571 9.00608C9.63446 8.94125 9.70596 8.88945 9.78566 8.85399C9.86537 8.81852 9.95153 8.80016 10.0387 8.80008H10.9801C11.1324 8.79857 11.2801 8.8529 11.3955 8.95294C11.511 9.05298 11.5864 9.19191 11.6078 9.34383C11.6475 9.64734 11.7212 9.94535 11.8274 10.2322C11.8696 10.3453 11.8788 10.4683 11.8538 10.5865C11.8287 10.7047 11.7706 10.8133 11.6862 10.8992L11.2877 11.3007C11.7344 12.0922 12.3849 12.7475 13.1706 13.1975L13.5691 12.796C13.6544 12.711 13.7622 12.6524 13.8795 12.6272C13.9969 12.602 14.1189 12.6112 14.2313 12.6538C14.516 12.7608 14.8118 12.835 15.1131 12.8751C15.2655 12.8967 15.4048 12.9741 15.5043 13.0924C15.6038 13.2107 15.6567 13.3618 15.6529 13.5168Z" fill="#F5F5F5"/>
<path d="M18.4272 11.95C18.4296 12.8739 18.2157 13.7853 17.8031 14.61C17.3138 15.5982 16.5615 16.4294 15.6307 17.0105C14.6998 17.5916 13.627 17.8996 12.5325 17.9C11.6172 17.9024 10.7143 17.6866 9.89724 17.27L5.94434 18.6L7.26197 14.61C6.8493 13.7853 6.63544 12.8739 6.63783 11.95C6.63825 10.8453 6.94339 9.76242 7.51906 8.8228C8.09474 7.88319 8.91821 7.12392 9.89724 6.63002C10.7143 6.21347 11.6172 5.99761 12.5325 6.00002H12.8793C14.3247 6.08051 15.69 6.69635 16.7137 7.72962C17.7373 8.76289 18.3475 10.141 18.4272 11.6V11.95Z" stroke="#E0E7FB" stroke-linecap="round" stroke-linejoin="round"/>
</svg>
