<svg width="33" height="45" viewBox="0 0 33 45" fill="none" xmlns="http://www.w3.org/2000/svg">
<path fill-rule="evenodd" clip-rule="evenodd" d="M15.4618 33.4402C14.9287 33.4402 14.5843 33.4873 14.3804 33.5341V40.4464C14.5847 40.4935 14.9138 40.4935 15.2114 40.4935C17.3737 40.5087 18.7848 39.3183 18.7848 36.7945C18.8 34.5996 17.515 33.4402 15.4618 33.4402Z" fill="white"/>
<path fill-rule="evenodd" clip-rule="evenodd" d="M6.22816 33.4093C5.74281 33.4093 5.41364 33.4557 5.24075 33.5025V36.6222C5.44468 36.669 5.69573 36.6852 6.03908 36.6852C7.30981 36.6852 8.09299 36.0421 8.09299 34.9608C8.0933 33.9891 7.4189 33.4093 6.22816 33.4093Z" fill="white"/>
<path d="M32.2147 10.6439C32.2122 10.4403 32.1474 10.2391 32.0076 10.0798L23.4435 0.297837C23.4417 0.295048 23.4386 0.294118 23.4367 0.291639C23.3856 0.234612 23.327 0.187813 23.2641 0.146286C23.2452 0.134199 23.2256 0.123351 23.2061 0.112193C23.1516 0.0827506 23.0945 0.0582659 23.0344 0.0402903C23.0189 0.0356415 23.0037 0.0291333 22.9876 0.0247942C22.9231 0.00929801 22.8559 0 22.7886 0H1.74178C0.781353 0 0 0.781639 0 1.74178V42.6732C0 43.6339 0.781329 44.4149 1.74178 44.4149H30.4808C31.4412 44.4149 32.2229 43.6339 32.2229 42.6732V10.7415C32.2226 10.7086 32.2176 10.6767 32.2142 10.6438L32.2147 10.6439ZM9.48813 37.4057C8.6733 38.1737 7.46652 38.5189 6.05535 38.5189C5.74233 38.5189 5.45937 38.5028 5.24084 38.4722V42.2492H2.87425V31.8253C3.61032 31.7004 4.64546 31.6059 6.10336 31.6059C7.57641 31.6059 8.6268 31.8883 9.33183 32.4523C10.0062 32.9854 10.4593 33.8631 10.4593 34.8973C10.4593 35.9322 10.1153 36.8098 9.48806 37.4052L9.48813 37.4057ZM19.5669 40.9956C18.4554 41.9201 16.7626 42.359 14.6942 42.359C13.4558 42.359 12.5783 42.2806 11.9817 42.2025V31.8254C12.8597 31.685 14.0042 31.606 15.2111 31.606C17.2161 31.606 18.5174 31.9668 19.5368 32.7345C20.6342 33.5499 21.3241 34.8507 21.3241 36.7158C21.3232 38.7381 20.5865 40.133 19.5669 40.9953V40.9956ZM29.3496 33.6441H25.2893V36.0579H29.0825V38.002H25.2893V42.2493H22.892V31.6858H29.3496V33.6441ZM1.74204 29.5742V1.74204H21.9177V10.6537C21.9177 11.1344 22.3073 11.5246 22.7887 11.5246H30.481L30.482 29.5739L1.74204 29.5742Z" fill="white"/>
<path d="M25.0464 18.7192C24.9955 18.7146 23.7683 18.6024 21.8845 18.6024C21.2944 18.6024 20.6999 18.6141 20.1129 18.6361C16.3929 15.8443 13.346 13.0507 11.7147 11.4849C11.7444 11.3125 11.7649 11.1762 11.7742 11.0714C11.9896 8.80029 11.7503 7.2671 11.0657 6.51423C10.6175 6.02237 9.95957 5.85873 9.27303 6.04624C8.84688 6.15781 8.05784 6.57126 7.8049 7.41305C7.52627 8.34349 7.97443 9.4722 9.15243 10.7816C9.17103 10.8015 9.57083 11.2202 10.297 11.93C9.82499 14.1806 8.58934 19.0378 7.98992 21.37C6.58161 22.1225 5.40823 23.0287 4.50017 24.0685L4.44067 24.1367L4.40224 24.2182C4.30864 24.4147 3.86141 25.435 4.19707 26.2544C4.35048 26.627 4.63778 26.8991 5.02801 27.042L5.13245 27.0702C5.13245 27.0702 5.22667 27.0903 5.39279 27.0903C6.11925 27.0903 7.91251 26.7088 8.87452 23.1639L9.10759 22.2657C12.4653 20.6337 16.6624 20.1074 19.7044 19.9605C21.2693 21.1212 22.8263 22.1869 24.335 23.131L24.3843 23.1595C24.4574 23.197 25.1191 23.5237 25.8939 23.5243C27.0013 23.5243 27.8102 22.845 28.1111 21.6608L28.1263 21.5796C28.2106 20.903 28.0404 20.2927 27.6347 19.816C26.7802 18.8113 25.1891 18.7238 25.0459 18.7189L25.0464 18.7192ZM5.41972 25.7837C5.4129 25.7756 5.4098 25.7682 5.40639 25.7595C5.33418 25.5856 5.42065 25.1638 5.54834 24.8548C6.09598 24.2424 6.75337 23.6802 7.51203 23.1741C6.77317 25.5658 5.69892 25.7725 5.41972 25.7837ZM10.1105 9.89399C8.97611 8.63104 8.99285 8.00496 9.05394 7.79423C9.15436 7.44184 9.60623 7.30857 9.61026 7.30733C9.83775 7.24566 9.97598 7.25774 10.099 7.39287C10.3773 7.69846 10.6163 8.62107 10.5221 10.3133C10.254 10.044 10.1105 9.89399 10.1105 9.89399ZM9.52438 20.6487L9.54391 20.574L9.54143 20.5749C10.1095 18.3497 10.9286 15.0917 11.3998 12.9991L11.4168 13.0152L11.4184 13.0053C12.9426 14.4406 15.2794 16.5397 18.0775 18.7228L18.0462 18.7244L18.0923 18.7591C15.4564 18.9819 12.3082 19.5013 9.52428 20.6487L9.52438 20.6487ZM26.8351 21.3786C26.6342 22.1162 26.2481 22.2169 25.8942 22.2169C25.4835 22.2169 25.088 22.0461 24.9978 22.0046C23.9704 21.3609 22.9195 20.6589 21.8589 19.9082H21.8843C23.7027 19.9082 24.9136 20.0186 24.9613 20.022C25.265 20.0335 26.2261 20.1754 26.6401 20.6623C26.8026 20.8529 26.8648 21.0814 26.8351 21.3786Z" fill="white"/>
</svg>
