<svg width="38" height="52" viewBox="0 0 38 52" fill="none" xmlns="http://www.w3.org/2000/svg">
<path fill-rule="evenodd" clip-rule="evenodd" d="M17.8147 38.5291C17.2005 38.5291 16.8038 38.5834 16.5688 38.6373V46.6015C16.8042 46.6558 17.1834 46.6558 17.5262 46.6558C20.0177 46.6733 21.6435 45.3018 21.6435 42.3939C21.661 39.865 20.1805 38.5291 17.8147 38.5291Z" fill="#156BA8"/>
<path fill-rule="evenodd" clip-rule="evenodd" d="M7.17673 38.4934C6.61752 38.4934 6.23826 38.547 6.03906 38.6009V42.1954C6.27403 42.2493 6.56327 42.2679 6.95888 42.2679C8.42299 42.2679 9.32536 41.5269 9.32536 40.281C9.32571 39.1616 8.54868 38.4934 7.17673 38.4934Z" fill="#156BA8"/>
<path d="M37.1171 12.2637C37.1142 12.0291 37.0396 11.7973 36.8785 11.6138L27.0112 0.343162C27.009 0.339948 27.0054 0.338877 27.0033 0.33602C26.9444 0.270315 26.8769 0.216394 26.8044 0.168547C26.7826 0.154621 26.7601 0.142123 26.7376 0.129267C26.6748 0.0953436 26.6091 0.0671328 26.5398 0.0464217C26.5219 0.0410654 26.5044 0.0335668 26.4859 0.0285673C26.4116 0.010713 26.3341 0 26.2566 0H2.00684C0.90026 0 0 0.900588 0 2.00684V49.1672C0 50.2741 0.900232 51.174 2.00684 51.174H35.1193C36.2259 51.174 37.1266 50.2741 37.1266 49.1672V12.3761C37.1262 12.3382 37.1205 12.3015 37.1166 12.2636L37.1171 12.2637ZM10.932 43.0981C9.9932 43.983 8.60277 44.3808 6.97686 44.3808C6.6162 44.3808 6.29017 44.3622 6.03839 44.3268V48.6787H3.31165V36.6685C4.15974 36.5246 5.35241 36.4157 7.03216 36.4157C8.72938 36.4157 9.93963 36.741 10.7519 37.3909C11.529 38.0051 12.0511 39.0164 12.0511 40.208C12.0511 41.4003 11.6547 42.4115 10.9319 43.0975L10.932 43.0981ZM22.5445 47.2343C21.264 48.2995 19.3136 48.8052 16.9304 48.8052C15.5034 48.8052 14.4925 48.7148 13.805 48.6248V36.6686C14.8166 36.5069 16.1354 36.4158 17.5259 36.4158C19.836 36.4158 21.3354 36.8315 22.5099 37.716C23.7744 38.6555 24.5692 40.1542 24.5692 42.3032C24.5681 44.6332 23.7193 46.2405 22.5445 47.234V47.2343ZM33.8161 38.7641H29.1378V41.5451H33.5083V43.7852H29.1378V48.6788H26.3757V36.5077H33.8161V38.7641ZM2.00715 34.0748V2.00714H25.2532V12.2749C25.2532 12.8288 25.7021 13.2784 26.2567 13.2784H35.1197L35.1207 34.0745L2.00715 34.0748Z" fill="#156BA8"/>
<path d="M28.8585 21.5679C28.8 21.5625 27.3859 21.4332 25.2154 21.4332C24.5355 21.4332 23.8506 21.4468 23.1743 21.4722C18.8881 18.2554 15.3776 15.0367 13.498 13.2326C13.5323 13.0341 13.5558 12.877 13.5665 12.7563C13.8147 10.1395 13.539 8.37298 12.7502 7.50554C12.2339 6.93884 11.4758 6.75029 10.6848 6.96633C10.1938 7.09488 9.28467 7.57125 8.99324 8.54115C8.67222 9.61318 9.18857 10.9137 10.5458 12.4224C10.5673 12.4452 11.0279 12.9277 11.8646 13.7454C11.3207 16.3386 9.89706 21.935 9.20642 24.622C7.5838 25.4891 6.23185 26.5332 5.1856 27.7313L5.11704 27.8098L5.07276 27.9037C4.96492 28.1301 4.44964 29.3057 4.83637 30.2498C5.01313 30.679 5.34416 30.9926 5.79376 31.1572L5.9141 31.1897C5.9141 31.1897 6.02266 31.2129 6.21406 31.2129C7.05107 31.2129 9.11723 30.7733 10.2256 26.6889L10.4942 25.6541C14.3629 23.7737 19.1987 23.1673 22.7036 22.998C24.5066 24.3353 26.3006 25.5633 28.0389 26.6511L28.0957 26.6839C28.18 26.7271 28.9423 27.1035 29.835 27.1042C31.1109 27.1042 32.0429 26.3215 32.3896 24.9571L32.4071 24.8635C32.5043 24.084 32.3082 23.3808 31.8408 22.8316C30.8563 21.6739 29.023 21.5732 28.858 21.5675L28.8585 21.5679ZM6.24508 29.7074C6.23722 29.6981 6.23365 29.6896 6.22973 29.6796C6.14652 29.4792 6.24615 28.9932 6.39328 28.6372C7.02425 27.9316 7.78169 27.2838 8.65581 26.7007C7.8045 29.4564 6.56677 29.6945 6.24508 29.7074ZM11.6497 11.3996C10.3427 9.94449 10.362 9.22313 10.4324 8.98033C10.5481 8.57432 11.0687 8.42077 11.0733 8.41934C11.3355 8.34828 11.4947 8.3622 11.6365 8.51789C11.9571 8.86999 12.2325 9.93301 12.1239 11.8828C11.815 11.5725 11.6497 11.3996 11.6497 11.3996ZM10.9744 23.791L10.9969 23.7049L10.994 23.706C11.6486 21.1421 12.5923 17.3884 13.1352 14.9773L13.1548 14.9959L13.1566 14.9844C14.9128 16.6381 17.6052 19.0567 20.8291 21.572L20.793 21.5738L20.8462 21.6138C17.8091 21.8706 14.1819 22.469 10.9743 23.791L10.9744 23.791ZM30.9194 24.632C30.688 25.4818 30.2431 25.5978 29.8353 25.5978C29.3622 25.5978 28.9065 25.4011 28.8026 25.3532C27.6189 24.6116 26.408 23.8027 25.186 22.9379H25.2153C27.3104 22.9379 28.7055 23.065 28.7605 23.0689C29.1104 23.0821 30.2177 23.2457 30.6948 23.8067C30.882 24.0263 30.9537 24.2895 30.9194 24.632Z" fill="#156BA8"/>
</svg>
