<svg width="22" height="27" viewBox="0 0 22 27" fill="none" xmlns="http://www.w3.org/2000/svg">
<path d="M7.96895 15.2501L9.09395 11.5001L6.0627 9.12509H9.8127L11.0002 5.40634L12.1877 9.12509H15.9377L12.8752 11.5001L14.0002 15.2501L11.0002 12.9063L7.96895 15.2501ZM3.3752 26.9688V17.2813C2.54186 16.3855 1.89603 15.3543 1.4377 14.1876C0.979365 13.0209 0.750198 11.7813 0.750198 10.4688C0.750198 7.59384 1.7452 5.16134 3.7352 3.17134C5.72436 1.18217 8.14603 0.187592 11.0002 0.187592C13.8544 0.187592 16.276 1.18217 18.2652 3.17134C20.2552 5.16134 21.2502 7.59384 21.2502 10.4688C21.2502 11.7813 21.021 13.0209 20.5627 14.1876C20.1044 15.3543 19.4585 16.3855 18.6252 17.2813V26.9688L11.0002 24.4688L3.3752 26.9688ZM11.0002 17.8751C13.0627 17.8751 14.8127 17.1509 16.2502 15.7026C17.6877 14.2551 18.4064 12.5105 18.4064 10.4688C18.4064 8.40634 17.6877 6.65092 16.2502 5.20259C14.8127 3.75509 13.0627 3.03134 11.0002 3.03134C8.9377 3.03134 7.1877 3.75509 5.7502 5.20259C4.3127 6.65092 3.59395 8.40634 3.59395 10.4688C3.59395 12.5105 4.3127 14.2551 5.7502 15.7026C7.1877 17.1509 8.9377 17.8751 11.0002 17.8751ZM6.0002 23.1563L11.0002 21.8126L16.0002 23.1563V19.3751C15.271 19.7918 14.4848 20.1201 13.6414 20.3601C12.7973 20.5993 11.9169 20.7188 11.0002 20.7188C10.0835 20.7188 9.20311 20.5993 8.35895 20.3601C7.51561 20.1201 6.72936 19.7918 6.0002 19.3751V23.1563Z" fill="#156BA8"/>
</svg>
